<?xml version="1.0" encoding="UTF-8"?><svg id="Layer_1" xmlns="http://www.w3.org/2000/svg" viewBox="0 0 70 41"><defs><style>.cls-1{stroke:#000;}.cls-1,.cls-2,.cls-3{stroke-miterlimit:10;}.cls-2{stroke:#fff;}.cls-2,.cls-4{fill:#fff;}.cls-3{stroke:#2994e1;}.cls-3,.cls-5{fill:#2994e1;}.cls-6,.cls-5,.cls-4{stroke-width:0px;}</style></defs><path class="cls-3" d="m13.98,9.73h.03c.07-.04.15-.15.26-.31.1-.16.18-.36.23-.6.27-1.18-.18-2.25-1.35-3.2-.55-.45-1.39-.7-2.53-.74-.98-.04-1.93.16-2.85.6-.92.44-1.65.96-2.17,1.56-.73.86-1.01,1.79-.83,2.78.08.46.23.88.47,1.26.23.38.48.69.73.93.26.25.63.5,1.11.76.48.26.88.46,1.2.59.32.13.8.32,1.43.57.49.19.87.34,1.15.44,1.86.77,3.23,1.64,4.14,2.62.78.88,1.19,2.01,1.2,3.38.02,1.37-.36,2.58-1.13,3.65-.35.5-.7.92-1.05,1.25-.35.33-.71.59-1.09.78-.38.19-.69.32-.92.4-.24.08-.57.16-.99.25-.25.04-.43.08-.56.13-.28.06-.59.11-.93.14-.68.06-1.39.05-2.13-.05-.74-.09-1.36-.26-1.87-.5-.45-.21-.87-.55-1.26-1.01-.38-.46-.63-.99-.74-1.6-.27-1.33.21-2.67,1.44-4.03.05-.06.11-.1.18-.12v-.03s.02,0,.02,0c.07-.02.15-.04.24-.05h.03c.06.01.1.02.14.04h.03c.07.03.13.06.17.09v.03s.03,0,.03,0c.04.03.07.07.09.13v.03s.03,0,.03,0c.02.07.04.14.05.21v.03c.02.16-.03.31-.15.45-.87.96-1.2,1.91-1.01,2.85.07.35.21.67.43.96.22.29.44.48.66.59.51.24,1.08.39,1.7.45.63.06,1.21.02,1.76-.12.69-.17,1.3-.47,1.85-.9.55-.43.93-.92,1.15-1.48.31-.73.23-1.52-.24-2.36-.37-.65-.98-1.28-1.85-1.89-.54-.37-1.29-.8-2.26-1.31-.26-.12-.41-.2-.45-.23-1.27-.62-2.2-1.14-2.79-1.56-.44-.3-.85-.63-1.23-.97-.37-.34-.7-.71-.97-1.09-.27-.38-.5-.77-.69-1.18-.19-.41-.32-.81-.4-1.22-.07-.41-.1-.81-.08-1.21.09-1.34.73-2.61,1.92-3.8.96-.97,2.09-1.7,3.41-2.19,1.32-.49,2.66-.68,4.02-.57,1.22.09,2.24.42,3.07.99,2.04,1.42,2.73,3.32,2.07,5.71-.23.81-.62,1.48-1.17,1.99-.55.51-1.14.83-1.78.96-.09.03-.17.04-.24.05-.25.04-.47.05-.67.03-.46-.05-.79-.23-1-.56-.3-.5-.22-1.05.23-1.67.29-.4.68-.72,1.17-.96.49-.23,1.01-.29,1.54-.16Z"/><path class="cls-3" d="m26.18,27.25h.02c.05-.03.11-.11.19-.23.08-.12.13-.27.17-.45.2-.87-.13-1.66-1-2.37-.4-.34-1.03-.52-1.87-.55-.72-.03-1.43.12-2.11.44-.68.32-1.22.71-1.61,1.16-.54.64-.75,1.32-.61,2.06.06.34.17.65.35.93.17.28.35.51.54.69.19.18.46.37.82.57.36.19.66.34.89.44.24.1.59.24,1.06.42.36.14.64.25.85.32,1.37.57,2.39,1.22,3.06,1.94.58.65.88,1.49.89,2.5.01,1.01-.26,1.91-.83,2.7-.26.37-.52.68-.78.92-.26.24-.53.44-.81.57-.28.14-.51.24-.68.29-.18.06-.42.12-.73.19-.18.03-.32.06-.41.1-.21.05-.44.08-.69.1-.5.05-1.03.03-1.57-.04-.55-.07-1.01-.19-1.39-.37-.33-.16-.64-.4-.93-.75-.29-.34-.47-.73-.55-1.18-.2-.98.16-1.98,1.07-2.98.04-.04.08-.07.13-.09v-.02s.02,0,.02,0c.05-.02.11-.03.18-.04h.02s.08.02.1.03h.02c.06.02.1.04.13.07v.02s.02,0,.02,0c.03.02.05.06.07.09v.02s.02,0,.02,0c.02.05.03.1.03.16v.02c.01.12-.02.23-.11.33-.64.71-.89,1.42-.75,2.11.05.26.16.5.32.71.16.21.32.36.49.44.38.18.8.29,1.26.33.46.04.9.01,1.3-.09.51-.13.97-.35,1.37-.67.4-.32.69-.68.85-1.1.23-.54.17-1.12-.18-1.75-.27-.48-.73-.95-1.37-1.4-.4-.27-.96-.59-1.67-.97-.2-.09-.31-.15-.34-.17-.94-.46-1.63-.84-2.07-1.15-.33-.22-.63-.46-.91-.72-.28-.25-.52-.52-.71-.81-.2-.28-.37-.57-.51-.87-.14-.3-.24-.6-.29-.9-.05-.3-.08-.6-.06-.9.07-.99.54-1.93,1.42-2.81.71-.72,1.55-1.26,2.52-1.62.97-.36,1.97-.5,2.97-.42.9.06,1.66.31,2.27.73,1.51,1.05,2.02,2.46,1.53,4.22-.17.6-.46,1.09-.87,1.47-.41.38-.84.62-1.32.71-.07.02-.12.03-.18.04-.18.03-.35.04-.5.03-.34-.04-.58-.17-.74-.41-.22-.37-.17-.78.17-1.24.21-.3.5-.54.87-.71.36-.17.74-.21,1.14-.11Z"/><path class="cls-5" d="m23.08,13.16c.13-.1.27-.15.42-.13.15.01.29.08.4.19.11.12.15.26.13.42-.02.4-.08.86-.2,1.37-.19,1.1-.47,2.13-.84,3.09-.37.96-.86,1.6-1.46,1.91-.17.09-.35.14-.53.16-.07.04-.14.07-.21.07-.09,0-.17,0-.25-.03-.96-.2-1.72-.66-2.29-1.39-.47-.57-.81-1.44-1.03-2.62-.22-1.18-.33-2.23-.33-3.15s.04-1.55.14-1.91c.07-.4.25-.7.53-.9.28-.2.61-.27.99-.21.55.09,1.1.41,1.64.96.55.54.8,1.05.75,1.53,0,.11-.04.28-.09.52-.33,2.05-.25,3.86.26,5.44.22-.13.49-.54.79-1.24.31-.69.55-1.45.73-2.26.12-.52.19-.99.22-1.43.02-.16.09-.3.22-.4Zm-2.49-3.6c-.45.07-.94,0-1.47-.2-.52-.2-.93-.48-1.21-.84-.28-.35-.37-.68-.25-.98.12-.3.4-.48.86-.55.45-.07.94,0,1.46.19.52.2.93.47,1.21.84.29.36.37.69.25.99-.12.3-.4.48-.86.55Z"/><path class="cls-5" d="m29.35,12.56c.13-.1.27-.15.43-.13s.3.08.4.21c.1.13.15.27.15.43-.04.58-.16,1.25-.36,2.01-.52,2.37-1.25,3.81-2.2,4.31-.14.07-.28.12-.42.15-.1.06-.21.1-.31.11-.09,0-.18,0-.27,0-.9-.21-1.66-.67-2.26-1.39-.36-.4-.66-.9-.88-1.51-.23-.61-.4-1.21-.5-1.81-.11-.59-.17-1.3-.18-2.13-.01-.83,0-1.54.03-2.14.04-.6.11-1.33.22-2.21.11-.88.2-1.54.26-1.98.07-.45.16-1.05.29-1.8.02-.16.05-.37.08-.6.04-.35.1-.69.17-1.04.09-.39.27-.68.54-.89.27-.2.6-.27.98-.2.55.08,1.09.39,1.64.94.55.55.8,1.07.75,1.54-.04.38-.12.89-.24,1.54-.07.39-.13.68-.16.88-.22,1.28-.38,2.26-.47,2.94-.09.68-.17,1.53-.25,2.57-.08,1.03-.06,1.99.03,2.88.1.88.29,1.78.57,2.69.21-.11.45-.48.74-1.11.28-.63.53-1.32.73-2.08.14-.64.24-1.23.3-1.76,0-.16.07-.29.19-.4Z"/><path class="cls-5" d="m37.97,11.75c.15-.08.29-.09.44-.04.15.05.26.15.34.29.08.15.09.29.05.44-.17.52-.48,1-.93,1.45-.45.45-.94.7-1.46.77h-.05c-.14.02-.28.02-.4.01-.31,2.34-.87,3.73-1.67,4.18-.03.06-.08.1-.15.14-.07.03-.14.06-.21.09h-.08c-.07.01-.13.02-.19.02,0-.02-.02-.03-.04-.02s-.05,0-.07-.02c-.23,0-.48-.05-.74-.15-.58-.22-1.09-.54-1.52-.97-.76-.76-1.34-2.05-1.76-3.88-.42-1.83-.61-3.11-.57-3.86.03-.45.17-.79.41-1.01.24-.22.52-.33.85-.32.56,0,1.15.26,1.77.76.62.5.94,1,.95,1.48,0,.09.02.27.02.54-.02,2.09.31,3.91.99,5.45.23-.47.47-1.54.73-3.2-.08-.1-.15-.19-.21-.28-.84-1.35-.95-2.63-.33-3.84.14-.26.33-.46.58-.58.25-.12.51-.15.79-.09.24.07.44.23.61.47.17.25.24.57.22.97-.02.2-.04.45-.07.76-.06.89-.12,1.62-.18,2.18.06.01.12.02.19,0,.27-.04.54-.21.82-.49.28-.29.47-.6.56-.93.06-.15.16-.26.31-.34Zm-2.81-1.27v-.13c-.24.45-.3.94-.2,1.45.06-.51.13-.95.2-1.32Z"/><path class="cls-5" d="m46.4,11.09c.13-.1.27-.15.42-.13.15.01.29.08.4.21.11.13.16.27.13.43-.05.78-.19,1.53-.41,2.26-.03.11-.06.22-.1.33-.48,1.43-1.2,2.54-2.16,3.31-.67.53-1.38.83-2.13.9-.27.02-.54.02-.81,0-1.17-.16-2.14-.65-2.91-1.45-.77-.8-1.22-1.8-1.37-3-.12-1.09.08-2.14.59-3.16s1.34-1.75,2.49-2.18c1.13-.45,2.09-.32,2.87.38.35.31.6.7.73,1.18.13.47.13.96,0,1.46-.19.7-.6,1.29-1.24,1.76-.45.38-.98.65-1.58.79.02.27.06.53.1.78.24,1.08.65,1.7,1.23,1.86.35.08.79-.07,1.31-.45,1.27-.87,2.01-2.5,2.23-4.88.02-.16.09-.3.22-.4Zm-3.91-.59c-.6.49-.98,1.28-1.13,2.38.31-.12.58-.26.8-.42.35-.3.6-.68.74-1.12.17-.52.17-.87.01-1.06-.11,0-.24.09-.41.23Z"/><path class="cls-5" d="m55.74,10.1c.28.06.43.24.45.53v.16c-.06.33-.15.8-.25,1.42-.1.61-.18,1.11-.24,1.5-.06.38-.16.84-.29,1.35-.13.52-.28.95-.45,1.29-.17.34-.39.67-.67.98-.28.31-.6.56-.96.74-.38.2-.76.31-1.16.35-.57.05-1.13-.07-1.68-.36-.76-.38-1.29-1.23-1.59-2.56-.29-1.23-.31-2.39-.05-3.46-.96.18-1.76.06-2.41-.35-.02-.02-.05-.03-.09-.05-.46-.34-.89-.85-1.28-1.53-.24-.45-.41-.9-.52-1.35-.1-.45-.15-.84-.15-1.16,0-.33.05-.65.13-.97.08-.32.16-.58.24-.77.08-.19.18-.36.29-.51.27-.44.59-.78.97-1.02s.75-.35,1.09-.33c.63.03,1.15.23,1.56.6.4.37.64.87.72,1.49.09.59.04,1.25-.15,2-.19.75-.47,1.44-.82,2.06.6-.16,1.01-.52,1.23-1.06.15-.34.4-.58.75-.72.54-.23,1.25-.16,2.13.21.32.13.43.37.33.7-.33,1.27-.52,2.68-.56,4.22-.04,1.54.11,2.57.45,3.1.04.05.07.07.09.07.19-.04.42-.3.67-.79.25-.49.51-1.2.78-2.13.27-.93.52-1.99.75-3.18.02-.16.1-.29.24-.37.14-.08.29-.12.45-.1Zm-9.3-3.8c-.16.2-.28.5-.36.9-.08.4-.07.85.03,1.35.11.66.39,1.13.83,1.41.23-.47.4-1,.52-1.59.12-.59.12-1.09,0-1.52-.11-.44-.38-.67-.79-.68h-.03c-.05,0-.12.05-.2.13Z"/><path class="cls-5" d="m44.36,26.49c.23.25.24.63.04,1.14-.21.43-.61.96-1.2,1.59-.59.63-1.19,1.17-1.8,1.62-.16,1.56-.62,2.95-1.38,4.17-.98,1.5-2.24,2.37-3.79,2.61-.07.03-.15.05-.22.06-.25.03-.49.03-.72,0-1.78-.06-3.22-.85-4.32-2.35-.66-.94-1.11-2.07-1.37-3.37s-.28-2.65-.07-4.04c-.19-.33-.34-.7-.46-1.09-.34-1.08-.23-2.08.33-3,.64-1.13,1.7-1.85,3.19-2.16.47-.1.93-.15,1.39-.15,1.28-.09,2.54.22,3.78.93,1.24.7,2.2,1.86,2.88,3.46.34.78.56,1.61.69,2.51.26-.13.59-.39.96-.79.38-.39.65-.74.82-1.04.02-.05.06-.11.13-.17.16-.12.36-.17.57-.16.22.02.4.09.54.23Zm-9.8,2.22c1.36.44,2.79.55,4.29.34-.09-.85-.3-1.64-.63-2.36-.38-.92-.93-1.65-1.66-2.18-.73-.53-1.55-.8-2.46-.8l-.45.05c-.74.15-1.32.47-1.72.94.45.16.96.47,1.54.94,1.21.89,1.58,1.88,1.12,3-.02.03-.03.05-.03.08Zm3.32,4.78c.37-.57.64-1.23.81-1.99-1.62.25-3.15.17-4.58-.23-.04,1.25.15,2.24.58,2.98.27.43.58.65.91.66.91.03,1.68-.44,2.28-1.42Z"/><path class="cls-5" d="m59.64,24.75c.23.03.42.12.56.28.14.16.21.36.21.59-.04.54-.12,1.15-.22,1.85-.62,4.42-1.68,7.04-3.19,7.86-.19.1-.4.17-.62.22-.07.03-.15.05-.22.06-.1.01-.2,0-.3,0-.36-.04-.73-.15-1.1-.34-.87-.34-1.6-.87-2.18-1.59-.32-.37-.6-.86-.84-1.47-.47,1.54-1.07,2.57-1.8,3.08-.19.12-.39.22-.61.29-.12.06-.25.1-.41.12-.13.01-.24,0-.35-.04h-.08c-.36-.03-.71-.14-1.06-.34-.85-.34-1.55-.85-2.1-1.52-.67-.79-1.16-2.02-1.49-3.68-.33-1.66-.5-3.13-.53-4.41-.02-1.28.03-2.17.15-2.69.09-.57.33-.99.72-1.27.39-.28.85-.39,1.39-.32.77.12,1.55.56,2.32,1.31.78.75,1.14,1.46,1.08,2.13,0,.15-.05.41-.11.77-.44,2.78-.3,5.25.41,7.4.58-1,1-3.2,1.27-6.6-.17-2.06-.18-3.45-.03-4.18.12-.57.36-.99.74-1.28.38-.28.83-.39,1.37-.32.77.12,1.55.56,2.32,1.31.78.75,1.14,1.46,1.08,2.13-.01.1-.03.3-.05.58-.41,3.26-.22,6.06.59,8.41.3-.26.64-.9,1.01-1.93.37-1.03.66-2.13.86-3.32.14-.8.25-1.57.32-2.31,0-.15.05-.29.13-.41.08-.12.18-.22.31-.28.13-.06.28-.09.43-.08Z"/><path class="cls-5" d="m67.79,24.07c.17-.14.38-.21.61-.2s.42.11.56.28c.15.17.22.38.22.6-.04.82-.19,1.76-.46,2.82-.68,3.34-1.68,5.37-3,6.09-.19.1-.39.17-.59.21-.14.09-.29.14-.44.16-.13.01-.25.01-.38,0-1.27-.27-2.34-.9-3.2-1.9-.51-.55-.94-1.26-1.27-2.11-.33-.85-.58-1.69-.74-2.52-.16-.83-.26-1.83-.3-2.99-.04-1.16-.03-2.16,0-3,.04-.84.12-1.87.26-3.11.14-1.23.25-2.16.33-2.79.09-.63.21-1.47.38-2.53.03-.23.06-.51.1-.85.05-.49.12-.98.22-1.47.12-.54.37-.96.74-1.26.37-.29.83-.39,1.37-.3.77.1,1.54.53,2.32,1.29.78.77,1.14,1.48,1.08,2.15-.04.54-.15,1.26-.3,2.16-.09.54-.16.96-.21,1.24-.29,1.8-.49,3.18-.61,4.13-.11.95-.21,2.15-.3,3.6-.09,1.45-.05,2.8.11,4.04.16,1.24.44,2.49.86,3.77.29-.16.62-.68,1.01-1.57.39-.89.71-1.87.98-2.93.18-.91.31-1.73.38-2.47,0-.23.09-.41.26-.56Z"/><path class="cls-1" d="m13.73,9.41h.03c.07-.04.15-.15.26-.31.1-.16.18-.36.23-.6.27-1.18-.18-2.25-1.35-3.2-.55-.45-1.39-.7-2.53-.74-.98-.04-1.93.16-2.85.6-.92.44-1.65.96-2.17,1.56-.73.86-1.01,1.79-.83,2.78.08.46.23.88.47,1.26.23.38.48.69.73.93.26.25.63.5,1.11.76.48.26.88.46,1.2.59.32.13.8.32,1.43.57.49.19.87.34,1.15.44,1.86.77,3.23,1.64,4.14,2.62.78.88,1.19,2.01,1.2,3.38.02,1.37-.36,2.58-1.13,3.65-.35.5-.7.92-1.05,1.25-.35.33-.71.59-1.09.78-.38.19-.69.32-.92.4-.24.08-.57.16-.99.25-.25.04-.43.08-.56.13-.28.06-.59.11-.93.14-.68.06-1.39.05-2.13-.05-.74-.09-1.36-.26-1.87-.5-.45-.21-.87-.55-1.26-1.01-.38-.46-.63-.99-.74-1.6-.27-1.33.21-2.67,1.44-4.03.05-.06.11-.1.18-.12v-.03s.02,0,.02,0c.07-.02.15-.04.24-.05h.03c.06.01.1.02.14.04h.03c.07.03.13.06.17.09v.03s.03,0,.03,0c.04.03.07.07.09.13v.03s.03,0,.03,0c.02.07.04.14.05.21v.03c.02.16-.03.31-.15.45-.87.96-1.2,1.91-1.01,2.85.07.35.21.67.43.96.22.29.44.48.66.59.51.24,1.08.39,1.7.45.63.06,1.21.02,1.76-.12.69-.17,1.3-.47,1.85-.9.55-.43.93-.92,1.15-1.48.31-.73.23-1.52-.24-2.36-.37-.65-.98-1.28-1.85-1.89-.54-.37-1.29-.8-2.26-1.31-.26-.12-.41-.2-.45-.23-1.27-.62-2.2-1.14-2.79-1.56-.44-.3-.85-.63-1.23-.97-.37-.34-.7-.71-.97-1.09-.27-.38-.5-.77-.69-1.18-.19-.41-.32-.81-.4-1.22-.07-.41-.1-.81-.08-1.21.09-1.34.73-2.61,1.92-3.8.96-.97,2.09-1.7,3.41-2.19,1.32-.49,2.66-.68,4.02-.57,1.22.09,2.24.42,3.07.99,2.04,1.42,2.73,3.32,2.07,5.71-.23.81-.62,1.48-1.17,1.99-.55.51-1.14.83-1.78.96-.09.03-.17.04-.24.05-.25.04-.47.05-.67.03-.46-.05-.79-.23-1-.56-.3-.5-.22-1.05.23-1.67.29-.4.68-.72,1.17-.96.49-.23,1.01-.29,1.54-.16Z"/><path class="cls-1" d="m25.92,26.93h.02c.05-.03.11-.11.19-.23.08-.12.13-.27.17-.45.2-.87-.13-1.66-1-2.37-.4-.34-1.03-.52-1.87-.55-.72-.03-1.43.12-2.11.44-.68.32-1.22.71-1.61,1.16-.54.64-.75,1.32-.61,2.06.06.34.17.65.35.93.17.28.35.51.54.69.19.18.46.37.82.57.36.19.66.34.89.44.24.1.59.24,1.06.42.36.14.64.25.85.32,1.37.57,2.39,1.22,3.06,1.94.58.65.88,1.49.89,2.5.01,1.01-.26,1.91-.83,2.7-.26.37-.52.68-.78.92-.26.24-.53.44-.81.57-.28.14-.51.24-.68.29-.18.06-.42.12-.73.19-.18.03-.32.06-.41.1-.21.05-.44.08-.69.1-.5.05-1.03.03-1.57-.04-.55-.07-1.01-.19-1.39-.37-.33-.16-.64-.4-.93-.75-.29-.34-.47-.73-.55-1.18-.2-.98.16-1.98,1.07-2.98.04-.04.08-.07.13-.09v-.02s.02,0,.02,0c.05-.02.11-.03.18-.04h.02s.08.02.1.03h.02c.06.02.1.04.13.07v.02s.02,0,.02,0c.03.02.05.06.07.09v.02s.02,0,.02,0c.02.05.03.1.03.16v.02c.01.12-.02.23-.11.33-.64.71-.89,1.42-.75,2.11.05.26.16.5.32.71.16.21.32.36.49.44.38.18.8.29,1.26.33.46.04.9.01,1.3-.09.51-.13.97-.35,1.37-.67.4-.32.69-.68.85-1.1.23-.54.17-1.12-.18-1.75-.27-.48-.73-.95-1.37-1.4-.4-.27-.96-.59-1.67-.97-.2-.09-.31-.15-.34-.17-.94-.46-1.63-.84-2.07-1.15-.33-.22-.63-.46-.91-.72-.28-.25-.52-.52-.71-.81-.2-.28-.37-.57-.51-.87-.14-.3-.24-.6-.29-.9-.05-.3-.08-.6-.06-.9.07-.99.54-1.93,1.42-2.81.71-.72,1.55-1.26,2.52-1.62.97-.36,1.97-.5,2.97-.42.9.06,1.66.31,2.27.73,1.51,1.05,2.02,2.46,1.53,4.22-.17.6-.46,1.09-.87,1.47-.41.38-.84.62-1.32.71-.07.02-.12.03-.18.04-.18.03-.35.04-.5.03-.34-.04-.58-.17-.74-.41-.22-.37-.17-.78.17-1.24.21-.3.5-.54.87-.71.36-.17.74-.21,1.14-.11Z"/><path class="cls-6" d="m22.82,12.85c.13-.1.27-.15.42-.13.15.01.29.08.4.19.11.12.15.26.13.42-.02.4-.08.86-.2,1.37-.19,1.1-.47,2.13-.84,3.09-.37.96-.86,1.6-1.46,1.91-.17.09-.35.14-.53.16-.07.04-.14.07-.21.07-.09,0-.17,0-.25-.03-.96-.2-1.72-.66-2.29-1.39-.47-.57-.81-1.44-1.03-2.62-.22-1.18-.33-2.23-.33-3.15s.04-1.55.14-1.91c.07-.4.25-.7.53-.9.28-.2.61-.27.99-.21.55.09,1.1.41,1.64.96.55.54.8,1.05.75,1.53,0,.11-.04.28-.09.52-.33,2.05-.25,3.86.26,5.44.22-.13.49-.54.79-1.24.31-.69.55-1.45.73-2.26.12-.52.19-.99.22-1.43.02-.16.09-.3.22-.4Zm-2.49-3.6c-.45.07-.94,0-1.47-.2-.52-.2-.93-.48-1.21-.84-.28-.35-.37-.68-.25-.98.12-.3.4-.48.86-.55.45-.07.94,0,1.46.19.52.2.93.47,1.21.84.29.36.37.69.25.99-.12.3-.4.48-.86.55Z"/><path class="cls-6" d="m29.09,12.24c.13-.1.27-.15.43-.13s.3.08.4.21c.1.13.15.27.15.43-.04.58-.16,1.25-.36,2.01-.52,2.37-1.25,3.81-2.2,4.31-.14.07-.28.12-.42.15-.1.06-.21.1-.31.11-.09,0-.18,0-.27,0-.9-.21-1.66-.67-2.26-1.39-.36-.4-.66-.9-.88-1.51-.23-.61-.4-1.21-.5-1.81-.11-.59-.17-1.3-.18-2.13-.01-.83,0-1.54.03-2.14.04-.6.11-1.33.22-2.21.11-.88.2-1.54.26-1.98.07-.45.16-1.05.29-1.8.02-.16.05-.37.08-.6.04-.35.1-.69.17-1.04.09-.39.27-.68.54-.89.27-.2.6-.27.98-.2.55.08,1.09.39,1.64.94.55.55.8,1.07.75,1.54-.04.38-.12.89-.24,1.54-.07.39-.13.68-.16.88-.22,1.28-.38,2.26-.47,2.94-.09.68-.17,1.53-.25,2.57-.08,1.03-.06,1.99.03,2.88.1.88.29,1.78.57,2.69.21-.11.45-.48.74-1.11.28-.63.53-1.32.73-2.08.14-.64.24-1.23.3-1.76,0-.16.07-.29.19-.4Z"/><path class="cls-6" d="m37.71,11.43c.15-.08.29-.09.44-.04.15.05.26.15.34.29.08.15.09.29.05.44-.17.52-.48,1-.93,1.45-.45.45-.94.7-1.46.77h-.05c-.14.02-.28.02-.4.01-.31,2.34-.87,3.73-1.67,4.18-.03.06-.08.1-.15.14-.07.03-.14.06-.21.09h-.08c-.07.01-.13.02-.19.02,0-.02-.02-.03-.04-.02s-.05,0-.07-.02c-.23,0-.48-.05-.74-.15-.58-.22-1.09-.54-1.52-.97-.76-.76-1.34-2.05-1.76-3.88-.42-1.83-.61-3.11-.57-3.86.03-.45.17-.79.41-1.01.24-.22.52-.33.85-.32.56,0,1.15.26,1.77.76.62.5.94,1,.95,1.48,0,.09.02.27.02.54-.02,2.09.31,3.91.99,5.45.23-.47.47-1.54.73-3.2-.08-.1-.15-.19-.21-.28-.84-1.35-.95-2.63-.33-3.84.14-.26.33-.46.58-.58.25-.12.51-.15.79-.09.24.07.44.23.61.47.17.25.24.57.22.97-.02.2-.04.45-.07.76-.06.89-.12,1.62-.18,2.18.06.01.12.02.19,0,.27-.04.54-.21.82-.49.28-.29.47-.6.56-.93.06-.15.16-.26.31-.34Zm-2.81-1.27v-.13c-.24.45-.3.94-.2,1.45.06-.51.13-.95.2-1.32Z"/><path class="cls-6" d="m46.14,10.78c.13-.1.27-.15.42-.13.15.01.29.08.4.21.11.13.16.27.13.43-.05.78-.19,1.53-.41,2.26-.03.11-.06.22-.1.33-.48,1.43-1.2,2.54-2.16,3.31-.67.53-1.38.83-2.13.9-.27.02-.54.02-.81,0-1.17-.16-2.14-.65-2.91-1.45-.77-.8-1.22-1.8-1.37-3-.12-1.09.08-2.14.59-3.16s1.34-1.75,2.49-2.18c1.13-.45,2.09-.32,2.87.38.35.31.6.7.73,1.18.13.47.13.96,0,1.46-.19.7-.6,1.29-1.24,1.76-.45.38-.98.65-1.58.79.02.27.06.53.1.78.24,1.08.65,1.7,1.23,1.86.35.08.79-.07,1.31-.45,1.27-.87,2.01-2.5,2.23-4.88.02-.16.09-.3.22-.4Zm-3.91-.59c-.6.49-.98,1.28-1.13,2.38.31-.12.58-.26.8-.42.35-.3.6-.68.74-1.12.17-.52.17-.87.01-1.06-.11,0-.24.09-.41.23Z"/><path class="cls-6" d="m55.48,9.78c.28.06.43.24.45.53v.16c-.06.33-.15.8-.25,1.42-.1.61-.18,1.11-.24,1.5-.06.38-.16.84-.29,1.35-.13.52-.28.95-.45,1.29-.17.34-.39.67-.67.98-.28.31-.6.56-.96.74-.38.2-.76.31-1.16.35-.57.05-1.13-.07-1.68-.36-.76-.38-1.29-1.23-1.59-2.56-.29-1.23-.31-2.39-.05-3.46-.96.18-1.76.06-2.41-.35-.02-.02-.05-.03-.09-.05-.46-.34-.89-.85-1.28-1.53-.24-.45-.41-.9-.52-1.35-.1-.45-.15-.84-.15-1.16,0-.33.05-.65.13-.97.08-.32.16-.58.24-.77.08-.19.18-.36.29-.51.27-.44.59-.78.97-1.02s.75-.35,1.09-.33c.63.03,1.15.23,1.56.6.4.37.64.87.72,1.49.09.59.04,1.25-.15,2-.19.75-.47,1.44-.82,2.06.6-.16,1.01-.52,1.23-1.06.15-.34.4-.58.75-.72.54-.23,1.25-.16,2.13.21.32.13.43.37.33.7-.33,1.27-.52,2.68-.56,4.22-.04,1.54.11,2.57.45,3.1.04.05.07.07.09.07.19-.04.42-.3.67-.79.25-.49.51-1.2.78-2.13.27-.93.52-1.99.75-3.18.02-.16.1-.29.24-.37.14-.08.29-.12.45-.1Zm-9.3-3.8c-.16.2-.28.5-.36.9-.08.4-.07.85.03,1.35.11.66.39,1.13.83,1.41.23-.47.4-1,.52-1.59.12-.59.12-1.09,0-1.52-.11-.44-.38-.67-.79-.68h-.03c-.05,0-.12.05-.2.13Z"/><path class="cls-6" d="m44.1,26.17c.23.25.24.63.04,1.14-.21.43-.61.96-1.2,1.59-.59.63-1.19,1.17-1.8,1.62-.16,1.56-.62,2.95-1.38,4.17-.98,1.5-2.24,2.37-3.79,2.61-.07.03-.15.05-.22.06-.25.03-.49.03-.72,0-1.78-.06-3.22-.85-4.32-2.35-.66-.94-1.11-2.07-1.37-3.37s-.28-2.65-.07-4.04c-.19-.33-.34-.7-.46-1.09-.34-1.08-.23-2.08.33-3,.64-1.13,1.7-1.85,3.19-2.16.47-.1.93-.15,1.39-.15,1.28-.09,2.54.22,3.78.93,1.24.7,2.2,1.86,2.88,3.46.34.78.56,1.61.69,2.51.26-.13.59-.39.96-.79.38-.39.65-.74.82-1.04.02-.05.06-.11.13-.17.16-.12.36-.17.57-.16.22.02.4.09.54.23Zm-9.8,2.22c1.36.44,2.79.55,4.29.34-.09-.85-.3-1.64-.63-2.36-.38-.92-.93-1.65-1.66-2.18-.73-.53-1.55-.8-2.46-.8l-.45.05c-.74.15-1.32.47-1.72.94.45.16.96.47,1.54.94,1.21.89,1.58,1.88,1.12,3-.02.03-.03.05-.03.08Zm3.32,4.78c.37-.57.64-1.23.81-1.99-1.62.25-3.15.17-4.58-.23-.04,1.25.15,2.24.58,2.98.27.43.58.65.91.66.91.03,1.68-.44,2.28-1.42Z"/><path class="cls-6" d="m59.38,24.43c.23.03.42.12.56.28.14.16.21.36.21.59-.04.54-.12,1.15-.22,1.85-.62,4.42-1.68,7.04-3.19,7.86-.19.1-.4.17-.62.22-.07.03-.15.05-.22.06-.1.01-.2,0-.3,0-.36-.04-.73-.15-1.1-.34-.87-.34-1.6-.87-2.18-1.59-.32-.37-.6-.86-.84-1.47-.47,1.54-1.07,2.57-1.8,3.08-.19.12-.39.22-.61.29-.12.06-.25.1-.41.12-.13.01-.24,0-.35-.04h-.08c-.36-.03-.71-.14-1.06-.34-.85-.34-1.55-.85-2.1-1.52-.67-.79-1.16-2.02-1.49-3.68-.33-1.66-.5-3.13-.53-4.41-.02-1.28.03-2.17.15-2.69.09-.57.33-.99.72-1.27.39-.28.85-.39,1.39-.32.77.12,1.55.56,2.32,1.31.78.75,1.14,1.46,1.08,2.13,0,.15-.05.41-.11.77-.44,2.78-.3,5.25.41,7.4.58-1,1-3.2,1.27-6.6-.17-2.06-.18-3.45-.03-4.18.12-.57.36-.99.74-1.28.38-.28.83-.39,1.37-.32.77.12,1.55.56,2.32,1.31.78.75,1.14,1.46,1.08,2.13-.01.1-.03.3-.05.58-.41,3.26-.22,6.06.59,8.41.3-.26.64-.9,1.01-1.93.37-1.03.66-2.13.86-3.32.14-.8.25-1.57.32-2.31,0-.15.05-.29.13-.41.08-.12.18-.22.31-.28.13-.06.28-.09.43-.08Z"/><path class="cls-6" d="m67.53,23.76c.17-.14.38-.21.61-.2s.42.11.56.28c.15.17.22.38.22.6-.04.82-.19,1.76-.46,2.82-.68,3.34-1.68,5.37-3,6.09-.19.1-.39.17-.59.21-.14.09-.29.14-.44.16-.13.01-.25.01-.38,0-1.27-.27-2.34-.9-3.2-1.9-.51-.55-.94-1.26-1.27-2.11-.33-.85-.58-1.69-.74-2.52-.16-.83-.26-1.83-.3-2.99-.04-1.16-.03-2.16,0-3,.04-.84.12-1.87.26-3.11.14-1.23.25-2.16.33-2.79.09-.63.21-1.47.38-2.53.03-.23.06-.51.1-.85.05-.49.12-.98.22-1.47.12-.54.37-.96.74-1.26.37-.29.83-.39,1.37-.3.77.1,1.54.53,2.32,1.29.78.77,1.14,1.48,1.08,2.15-.04.54-.15,1.26-.3,2.16-.09.54-.16.96-.21,1.24-.29,1.8-.49,3.18-.61,4.13-.11.95-.21,2.15-.3,3.6-.09,1.45-.05,2.8.11,4.04.16,1.24.44,2.49.86,3.77.29-.16.62-.68,1.01-1.57.39-.89.71-1.87.98-2.93.18-.91.31-1.73.38-2.47,0-.23.09-.41.26-.56Z"/><path class="cls-2" d="m13.39,8.79h.03c.07-.04.15-.15.26-.31.1-.16.18-.36.23-.6.27-1.18-.18-2.25-1.35-3.2-.55-.45-1.39-.7-2.53-.74-.98-.04-1.93.16-2.85.6-.92.44-1.65.96-2.17,1.56-.73.86-1.01,1.79-.83,2.78.08.46.23.88.47,1.26.23.38.48.69.73.93.26.25.63.5,1.11.76.48.26.88.46,1.2.59.32.13.8.32,1.43.57.49.19.87.34,1.15.44,1.86.77,3.23,1.64,4.14,2.62.78.88,1.19,2.01,1.2,3.38.02,1.37-.36,2.58-1.13,3.65-.35.5-.7.92-1.05,1.25-.35.33-.71.59-1.09.78-.38.19-.69.32-.92.4-.24.08-.57.16-.99.25-.25.04-.43.08-.56.13-.28.06-.59.11-.93.14-.68.06-1.39.05-2.13-.05-.74-.09-1.36-.26-1.87-.5-.45-.21-.87-.55-1.26-1.01-.38-.46-.63-.99-.74-1.6-.27-1.33.21-2.67,1.44-4.03.05-.06.11-.1.18-.12v-.03s.02,0,.02,0c.07-.02.15-.04.24-.05h.03c.06.01.1.02.14.04h.03c.07.03.13.06.17.09v.03s.03,0,.03,0c.04.03.07.07.09.13v.03s.03,0,.03,0c.02.07.04.14.05.21v.03c.02.16-.03.31-.15.45-.87.96-1.2,1.91-1.01,2.85.07.35.21.67.43.96.22.29.44.48.66.59.51.24,1.08.39,1.7.45.63.06,1.21.02,1.76-.12.69-.17,1.3-.47,1.85-.9.55-.43.93-.92,1.15-1.48.31-.73.23-1.52-.24-2.36-.37-.65-.98-1.28-1.85-1.89-.54-.37-1.29-.8-2.26-1.31-.26-.12-.41-.2-.45-.23-1.27-.62-2.2-1.14-2.79-1.56-.44-.3-.85-.63-1.23-.97-.37-.34-.7-.71-.97-1.09-.27-.38-.5-.77-.69-1.18-.19-.41-.32-.81-.4-1.22-.07-.41-.1-.81-.08-1.21.09-1.34.73-2.61,1.92-3.8.96-.97,2.09-1.7,3.41-2.19,1.32-.49,2.66-.68,4.02-.57,1.22.09,2.24.42,3.07.99,2.04,1.42,2.73,3.32,2.07,5.71-.23.81-.62,1.48-1.17,1.99-.55.51-1.14.83-1.78.96-.09.03-.17.04-.24.05-.25.04-.47.05-.67.03-.46-.05-.79-.23-1-.56-.3-.5-.22-1.05.23-1.67.29-.4.68-.72,1.17-.96.49-.23,1.01-.29,1.54-.16Z"/><path class="cls-2" d="m25.58,26.31h.02c.05-.03.11-.11.19-.23.08-.12.13-.27.17-.45.2-.87-.13-1.66-1-2.37-.4-.34-1.03-.52-1.87-.55-.72-.03-1.43.12-2.11.44-.68.32-1.22.71-1.61,1.16-.54.64-.75,1.32-.61,2.06.06.34.17.65.35.93.17.28.35.51.54.69.19.18.46.37.82.57.36.19.66.34.89.44.24.1.59.24,1.06.42.36.14.64.25.85.32,1.37.57,2.39,1.22,3.06,1.94.58.65.88,1.49.89,2.5.01,1.01-.26,1.91-.83,2.7-.26.37-.52.68-.78.92-.26.24-.53.44-.81.57-.28.14-.51.24-.68.29-.18.06-.42.12-.73.19-.18.03-.32.06-.41.1-.21.05-.44.08-.69.1-.5.05-1.03.03-1.57-.04-.55-.07-1.01-.19-1.39-.37-.33-.16-.64-.4-.93-.75-.29-.34-.47-.73-.55-1.18-.2-.98.16-1.98,1.07-2.98.04-.04.08-.07.13-.09v-.02s.02,0,.02,0c.05-.02.11-.03.18-.04h.02s.08.02.1.03h.02c.06.02.1.04.13.07v.02s.02,0,.02,0c.03.02.05.06.07.09v.02s.02,0,.02,0c.02.05.03.1.03.16v.02c.01.12-.02.23-.11.33-.64.71-.89,1.42-.75,2.11.05.26.16.5.32.71.16.21.32.36.49.44.38.18.8.29,1.26.33.46.04.9.01,1.3-.09.51-.13.97-.35,1.37-.67.4-.32.69-.68.85-1.1.23-.54.17-1.12-.18-1.75-.27-.48-.73-.95-1.37-1.4-.4-.27-.96-.59-1.67-.97-.2-.09-.31-.15-.34-.17-.94-.46-1.63-.84-2.07-1.15-.33-.22-.63-.46-.91-.72-.28-.25-.52-.52-.71-.81-.2-.28-.37-.57-.51-.87-.14-.3-.24-.6-.29-.9-.05-.3-.08-.6-.06-.9.07-.99.54-1.93,1.42-2.81.71-.72,1.55-1.26,2.52-1.62.97-.36,1.97-.5,2.97-.42.9.06,1.66.31,2.27.73,1.51,1.05,2.02,2.46,1.53,4.22-.17.6-.46,1.09-.87,1.47-.41.38-.84.62-1.32.71-.07.02-.12.03-.18.04-.18.03-.35.04-.5.03-.34-.04-.58-.17-.74-.41-.22-.37-.17-.78.17-1.24.21-.3.5-.54.87-.71.36-.17.74-.21,1.14-.11Z"/><path class="cls-4" d="m22.48,12.23c.13-.1.27-.15.42-.13.15.01.29.08.4.19.11.12.15.26.13.42-.02.4-.08.86-.2,1.37-.19,1.1-.47,2.13-.84,3.09-.37.96-.86,1.6-1.46,1.91-.17.09-.35.14-.53.16-.07.04-.14.07-.21.07-.09,0-.17,0-.25-.03-.96-.2-1.72-.66-2.29-1.39-.47-.57-.81-1.44-1.03-2.62-.22-1.18-.33-2.23-.33-3.15s.04-1.55.14-1.91c.07-.4.25-.7.53-.9.28-.2.61-.27.99-.21.55.09,1.1.41,1.64.96.55.54.8,1.05.75,1.53,0,.11-.04.28-.09.52-.33,2.05-.25,3.86.26,5.44.22-.13.49-.54.79-1.24.31-.69.55-1.45.73-2.26.12-.52.19-.99.22-1.43.02-.16.09-.3.22-.4Zm-2.49-3.6c-.45.07-.94,0-1.47-.2-.52-.2-.93-.48-1.21-.84-.28-.35-.37-.68-.25-.98.12-.3.4-.48.86-.55.45-.07.94,0,1.46.19.52.2.93.47,1.21.84.29.36.37.69.25.99-.12.3-.4.48-.86.55Z"/><path class="cls-4" d="m28.75,11.63c.13-.1.27-.15.43-.13s.3.08.4.21c.1.13.15.27.15.43-.04.58-.16,1.25-.36,2.01-.52,2.37-1.25,3.81-2.2,4.31-.14.07-.28.12-.42.15-.1.06-.21.1-.31.11-.09,0-.18,0-.27,0-.9-.21-1.66-.67-2.26-1.39-.36-.4-.66-.9-.88-1.51-.23-.61-.4-1.21-.5-1.81-.11-.59-.17-1.3-.18-2.13-.01-.83,0-1.54.03-2.14.04-.6.11-1.33.22-2.21.11-.88.2-1.54.26-1.98.07-.45.16-1.05.29-1.8.02-.16.05-.37.08-.6.04-.35.1-.69.17-1.04.09-.39.27-.68.54-.89.27-.2.6-.27.98-.2.55.08,1.09.39,1.64.94.55.55.8,1.07.75,1.54-.04.38-.12.89-.24,1.54-.07.39-.13.68-.16.88-.22,1.28-.38,2.26-.47,2.94-.09.68-.17,1.53-.25,2.57-.08,1.03-.06,1.99.03,2.88.1.88.29,1.78.57,2.69.21-.11.45-.48.74-1.11.28-.63.53-1.32.73-2.08.14-.64.24-1.23.3-1.76,0-.16.07-.29.19-.4Z"/><path class="cls-4" d="m37.38,10.81c.15-.08.29-.09.44-.04.15.05.26.15.34.29.08.15.09.29.05.44-.17.52-.48,1-.93,1.45-.45.45-.94.7-1.46.77h-.05c-.14.02-.28.02-.4.01-.31,2.34-.87,3.73-1.67,4.18-.03.06-.08.1-.15.14-.07.03-.14.06-.21.09h-.08c-.07.01-.13.02-.19.02,0-.02-.02-.03-.04-.02s-.05,0-.07-.02c-.23,0-.48-.05-.74-.15-.58-.22-1.09-.54-1.52-.97-.76-.76-1.34-2.05-1.76-3.88-.42-1.83-.61-3.11-.57-3.86.03-.45.17-.79.41-1.01.24-.22.52-.33.85-.32.56,0,1.15.26,1.77.76.62.5.94,1,.95,1.48,0,.09.02.27.02.54-.02,2.09.31,3.91.99,5.45.23-.47.47-1.54.73-3.2-.08-.1-.15-.19-.21-.28-.84-1.35-.95-2.63-.33-3.84.14-.26.33-.46.58-.58.25-.12.51-.15.79-.09.24.07.44.23.61.47.17.25.24.57.22.97-.02.2-.04.45-.07.76-.06.89-.12,1.62-.18,2.18.06.01.12.02.19,0,.27-.04.54-.21.82-.49.28-.29.47-.6.56-.93.06-.15.16-.26.31-.34Zm-2.81-1.27v-.13c-.24.45-.3.94-.2,1.45.06-.51.13-.95.2-1.32Z"/><path class="cls-4" d="m45.81,10.16c.13-.1.27-.15.42-.13.15.01.29.08.4.21.11.13.16.27.13.43-.05.78-.19,1.53-.41,2.26-.03.11-.06.22-.1.33-.48,1.43-1.2,2.54-2.16,3.31-.67.53-1.38.83-2.13.9-.27.02-.54.02-.81,0-1.17-.16-2.14-.65-2.91-1.45-.77-.8-1.22-1.8-1.37-3-.12-1.09.08-2.14.59-3.16s1.34-1.75,2.49-2.18c1.13-.45,2.09-.32,2.87.38.35.31.6.7.73,1.18.13.47.13.96,0,1.46-.19.7-.6,1.29-1.24,1.76-.45.38-.98.65-1.58.79.02.27.06.53.1.78.24,1.08.65,1.7,1.23,1.86.35.08.79-.07,1.31-.45,1.27-.87,2.01-2.5,2.23-4.88.02-.16.09-.3.22-.4Zm-3.91-.59c-.6.49-.98,1.28-1.13,2.38.31-.12.58-.26.8-.42.35-.3.6-.68.74-1.12.17-.52.17-.87.01-1.06-.11,0-.24.09-.41.23Z"/><path class="cls-4" d="m55.14,9.17c.28.06.43.24.45.53v.16c-.06.33-.15.8-.25,1.42-.1.61-.18,1.11-.24,1.5-.06.38-.16.84-.29,1.35-.13.52-.28.95-.45,1.29-.17.34-.39.67-.67.98-.28.31-.6.56-.96.74-.38.2-.76.31-1.16.35-.57.05-1.13-.07-1.68-.36-.76-.38-1.29-1.23-1.59-2.56-.29-1.23-.31-2.39-.05-3.46-.96.18-1.76.06-2.41-.35-.02-.02-.05-.03-.09-.05-.46-.34-.89-.85-1.28-1.53-.24-.45-.41-.9-.52-1.35-.1-.45-.15-.84-.15-1.16,0-.33.05-.65.13-.97.08-.32.16-.58.24-.77.08-.19.18-.36.29-.51.27-.44.59-.78.97-1.02s.75-.35,1.09-.33c.63.03,1.15.23,1.56.6.4.37.64.87.72,1.49.09.59.04,1.25-.15,2-.19.75-.47,1.44-.82,2.06.6-.16,1.01-.52,1.23-1.06.15-.34.4-.58.75-.72.54-.23,1.25-.16,2.13.21.32.13.43.37.33.7-.33,1.27-.52,2.68-.56,4.22-.04,1.54.11,2.57.45,3.1.04.05.07.07.09.07.19-.04.42-.3.67-.79.25-.49.51-1.2.78-2.13.27-.93.52-1.99.75-3.18.02-.16.1-.29.24-.37.14-.08.29-.12.45-.1Zm-9.3-3.8c-.16.2-.28.5-.36.9-.08.4-.07.85.03,1.35.11.66.39,1.13.83,1.41.23-.47.4-1,.52-1.59.12-.59.12-1.09,0-1.52-.11-.44-.38-.67-.79-.68h-.03c-.05,0-.12.05-.2.13Z"/><path class="cls-4" d="m43.76,25.55c.23.25.24.63.04,1.14-.21.43-.61.96-1.2,1.59-.59.63-1.19,1.17-1.8,1.62-.16,1.56-.62,2.95-1.38,4.17-.98,1.5-2.24,2.37-3.79,2.61-.07.03-.15.05-.22.06-.25.03-.49.03-.72,0-1.78-.06-3.22-.85-4.32-2.35-.66-.94-1.11-2.07-1.37-3.37s-.28-2.65-.07-4.04c-.19-.33-.34-.7-.46-1.09-.34-1.08-.23-2.08.33-3,.64-1.13,1.7-1.85,3.19-2.16.47-.1.93-.15,1.39-.15,1.28-.09,2.54.22,3.78.93,1.24.7,2.2,1.86,2.88,3.46.34.78.56,1.61.69,2.51.26-.13.59-.39.96-.79.38-.39.65-.74.82-1.04.02-.05.06-.11.13-.17.16-.12.36-.17.57-.16.22.02.4.09.54.23Zm-9.8,2.22c1.36.44,2.79.55,4.29.34-.09-.85-.3-1.64-.63-2.36-.38-.92-.93-1.65-1.66-2.18-.73-.53-1.55-.8-2.46-.8l-.45.05c-.74.15-1.32.47-1.72.94.45.16.96.47,1.54.94,1.21.89,1.58,1.88,1.12,3-.02.03-.03.05-.03.08Zm3.32,4.78c.37-.57.64-1.23.81-1.99-1.62.25-3.15.17-4.58-.23-.04,1.25.15,2.24.58,2.98.27.43.58.65.91.66.91.03,1.68-.44,2.28-1.42Z"/><path class="cls-4" d="m59.04,23.82c.23.03.42.12.56.28.14.16.21.36.21.59-.04.54-.12,1.15-.22,1.85-.62,4.42-1.68,7.04-3.19,7.86-.19.1-.4.17-.62.22-.07.03-.15.05-.22.06-.1.01-.2,0-.3,0-.36-.04-.73-.15-1.1-.34-.87-.34-1.6-.87-2.18-1.59-.32-.37-.6-.86-.84-1.47-.47,1.54-1.07,2.57-1.8,3.08-.19.12-.39.22-.61.29-.12.06-.25.1-.41.12-.13.01-.24,0-.35-.04h-.08c-.36-.03-.71-.14-1.06-.34-.85-.34-1.55-.85-2.1-1.52-.67-.79-1.16-2.02-1.49-3.68-.33-1.66-.5-3.13-.53-4.41-.02-1.28.03-2.17.15-2.69.09-.57.33-.99.72-1.27.39-.28.85-.39,1.39-.32.77.12,1.55.56,2.32,1.31.78.75,1.14,1.46,1.08,2.13,0,.15-.05.41-.11.77-.44,2.78-.3,5.25.41,7.4.58-1,1-3.2,1.27-6.6-.17-2.06-.18-3.45-.03-4.18.12-.57.36-.99.74-1.28.38-.28.83-.39,1.37-.32.77.12,1.55.56,2.32,1.31.78.75,1.14,1.46,1.08,2.13-.01.1-.03.3-.05.58-.41,3.26-.22,6.06.59,8.41.3-.26.64-.9,1.01-1.93.37-1.03.66-2.13.86-3.32.14-.8.25-1.57.32-2.31,0-.15.05-.29.13-.41.08-.12.18-.22.31-.28.13-.06.28-.09.43-.08Z"/><path class="cls-4" d="m67.2,23.14c.17-.14.38-.21.61-.2s.42.11.56.28c.15.17.22.38.22.6-.04.82-.19,1.76-.46,2.82-.68,3.34-1.68,5.37-3,6.09-.19.1-.39.17-.59.21-.14.09-.29.14-.44.16-.13.01-.25.01-.38,0-1.27-.27-2.34-.9-3.2-1.9-.51-.55-.94-1.26-1.27-2.11-.33-.85-.58-1.69-.74-2.52-.16-.83-.26-1.83-.3-2.99-.04-1.16-.03-2.16,0-3,.04-.84.12-1.87.26-3.11.14-1.23.25-2.16.33-2.79.09-.63.21-1.47.38-2.53.03-.23.06-.51.1-.85.05-.49.12-.98.22-1.47.12-.54.37-.96.74-1.26.37-.29.83-.39,1.37-.3.77.1,1.54.53,2.32,1.29.78.77,1.14,1.48,1.08,2.15-.04.54-.15,1.26-.3,2.16-.09.54-.16.96-.21,1.24-.29,1.8-.49,3.18-.61,4.13-.11.95-.21,2.15-.3,3.6-.09,1.45-.05,2.8.11,4.04.16,1.24.44,2.49.86,3.77.29-.16.62-.68,1.01-1.57.39-.89.71-1.87.98-2.93.18-.91.31-1.73.38-2.47,0-.23.09-.41.26-.56Z"/></svg>