<?xml version="1.0" encoding="UTF-8"?><svg id="Layer_1" xmlns="http://www.w3.org/2000/svg" viewBox="0 0 197.61 99.81"><defs><style>.cls-1{stroke:#000;}.cls-1,.cls-2,.cls-3{stroke-miterlimit:10;}.cls-2{stroke:#fff;}.cls-2,.cls-4{fill:#fff;}.cls-3{stroke:#2994e1;}.cls-3,.cls-5{fill:#2994e1;}.cls-6,.cls-5,.cls-4{stroke-width:0px;}</style></defs><path class="cls-3" d="m59.68,23.57h.07c.17-.11.38-.37.64-.77.26-.41.45-.91.57-1.51.68-2.94-.45-5.61-3.37-8-1.37-1.14-3.47-1.75-6.32-1.85-2.44-.09-4.82.41-7.13,1.5-2.31,1.09-4.12,2.4-5.42,3.91-1.83,2.15-2.52,4.47-2.07,6.95.2,1.15.58,2.2,1.17,3.14.58.94,1.19,1.72,1.84,2.33.64.62,1.57,1.25,2.78,1.91,1.21.65,2.21,1.15,3.01,1.48.8.33,1.99.81,3.58,1.43,1.21.48,2.17.84,2.87,1.09,4.64,1.92,8.08,4.1,10.34,6.55,1.96,2.21,2.96,5.02,3.01,8.44.04,3.42-.89,6.46-2.81,9.11-.88,1.25-1.75,2.29-2.62,3.11-.87.82-1.78,1.47-2.73,1.94-.95.47-1.72.8-2.31.99-.59.19-1.42.4-2.48.63-.62.1-1.08.21-1.39.33-.71.15-1.49.27-2.33.35-1.7.16-3.47.12-5.32-.12-1.85-.24-3.41-.66-4.68-1.26-1.13-.53-2.18-1.37-3.14-2.52-.96-1.15-1.58-2.48-1.85-3.99-.67-3.32.54-6.67,3.6-10.06.12-.15.27-.25.44-.31v-.07s.06,0,.06,0c.17-.06.37-.1.6-.12h.07c.14.03.25.06.35.1h.07c.19.07.33.14.43.22v.07s.07,0,.07,0c.1.08.17.19.23.32v.07s.07,0,.07,0c.06.18.1.35.12.53v.07c.04.4-.08.77-.36,1.11-2.17,2.41-3.01,4.78-2.52,7.13.17.89.53,1.69,1.07,2.4.54.72,1.09,1.21,1.66,1.47,1.27.6,2.69.98,4.26,1.13,1.57.15,3.03.05,4.4-.3,1.72-.43,3.26-1.18,4.63-2.25,1.37-1.07,2.32-2.31,2.87-3.71.78-1.83.57-3.79-.61-5.89-.92-1.63-2.46-3.2-4.62-4.71-1.35-.91-3.23-2-5.64-3.27-.66-.3-1.04-.49-1.13-.57-3.16-1.56-5.49-2.85-6.98-3.89-1.11-.75-2.13-1.56-3.06-2.42-.94-.86-1.74-1.77-2.41-2.72-.67-.95-1.25-1.94-1.72-2.95-.48-1.01-.81-2.03-.99-3.05-.18-1.02-.25-2.03-.21-3.02.23-3.36,1.83-6.52,4.81-9.5,2.39-2.43,5.23-4.25,8.52-5.48,3.29-1.23,6.64-1.7,10.04-1.43,3.04.22,5.59,1.04,7.66,2.47,5.1,3.54,6.82,8.3,5.16,14.26-.58,2.04-1.55,3.69-2.92,4.97-1.37,1.27-2.85,2.08-4.44,2.4-.22.07-.42.11-.6.12-.62.1-1.18.13-1.68.09-1.14-.12-1.97-.59-2.49-1.39-.75-1.24-.56-2.63.56-4.17.72-1.01,1.69-1.81,2.92-2.4,1.23-.59,2.51-.71,3.85-.39Z"/><path class="cls-3" d="m90.15,67.36h.05c.13-.08.28-.27.47-.57.19-.3.33-.67.42-1.11.5-2.18-.33-4.16-2.5-5.93-1.01-.84-2.57-1.3-4.68-1.37-1.81-.07-3.57.3-5.28,1.11-1.71.81-3.05,1.77-4.01,2.9-1.35,1.59-1.87,3.31-1.53,5.15.14.85.43,1.63.86,2.32.43.69.88,1.27,1.36,1.73.48.46,1.16.93,2.06,1.41.9.48,1.64.85,2.23,1.1.59.25,1.47.6,2.65,1.06.9.35,1.61.62,2.13.81,3.43,1.42,5.98,3.04,7.65,4.85,1.45,1.64,2.19,3.72,2.23,6.25.03,2.53-.66,4.78-2.08,6.75-.65.93-1.3,1.7-1.94,2.31-.64.61-1.32,1.09-2.02,1.44-.7.35-1.27.59-1.71.73-.44.14-1.05.3-1.83.47-.46.08-.8.16-1.03.24-.52.11-1.1.2-1.73.26-1.26.12-2.57.09-3.94-.09-1.37-.17-2.52-.49-3.46-.93-.84-.39-1.61-1.01-2.32-1.86-.71-.85-1.17-1.84-1.37-2.95-.49-2.46.4-4.94,2.67-7.45.09-.11.2-.18.33-.23v-.05s.04,0,.04,0c.13-.04.28-.08.44-.09h.05c.1.02.19.05.26.07h.05c.14.05.24.11.32.17v.05s.05,0,.05,0c.07.06.13.14.17.23v.05s.05,0,.05,0c.04.13.07.26.09.39v.05c.03.3-.06.57-.27.83-1.6,1.78-2.23,3.54-1.87,5.28.13.66.39,1.25.79,1.78.4.53.81.89,1.23,1.09.94.45,1.99.73,3.15.84,1.16.11,2.25.04,3.26-.22,1.27-.32,2.41-.87,3.42-1.67,1.01-.79,1.72-1.71,2.12-2.75.58-1.35.43-2.81-.45-4.36-.68-1.21-1.82-2.37-3.42-3.49-1-.68-2.39-1.48-4.18-2.42-.49-.22-.77-.36-.84-.42-2.34-1.15-4.06-2.11-5.17-2.88-.82-.56-1.57-1.16-2.27-1.79-.69-.64-1.29-1.31-1.79-2.01-.5-.7-.92-1.43-1.28-2.18-.35-.75-.6-1.5-.73-2.26-.14-.75-.19-1.5-.16-2.24.17-2.48,1.36-4.83,3.56-7.03,1.77-1.8,3.87-3.15,6.31-4.06,2.44-.91,4.91-1.26,7.43-1.06,2.25.16,4.14.77,5.67,1.83,3.78,2.62,5.05,6.14,3.82,10.56-.43,1.51-1.15,2.73-2.16,3.68-1.01.94-2.11,1.54-3.29,1.78-.16.05-.31.08-.44.09-.46.08-.88.1-1.25.06-.84-.09-1.46-.43-1.85-1.03-.55-.92-.41-1.95.42-3.09.53-.75,1.25-1.34,2.16-1.78.91-.43,1.86-.53,2.85-.29Z"/><path class="cls-5" d="m82.4,32.16c.31-.25.66-.37,1.05-.33.38.03.72.19.99.48.27.29.39.64.33,1.05-.04,1-.21,2.14-.5,3.43-.47,2.75-1.17,5.32-2.1,7.73-.93,2.41-2.15,3.99-3.65,4.76-.43.22-.87.35-1.32.39-.17.11-.35.17-.52.18-.22.02-.43,0-.62-.08-2.39-.5-4.3-1.66-5.73-3.46-1.17-1.42-2.02-3.61-2.56-6.56-.54-2.95-.82-5.57-.82-7.87s.1-3.88.34-4.76c.18-1.01.62-1.76,1.31-2.25.7-.49,1.53-.67,2.49-.53,1.37.23,2.74,1.03,4.11,2.39,1.36,1.36,1.99,2.63,1.87,3.82-.02.27-.09.71-.22,1.3-.84,5.12-.62,9.66.64,13.59.56-.32,1.22-1.35,1.98-3.09.76-1.74,1.37-3.62,1.81-5.64.29-1.29.47-2.48.55-3.57.05-.41.24-.74.55-1Zm-6.23-8.99c-1.13.17-2.36,0-3.66-.51-1.31-.51-2.32-1.21-3.03-2.09-.71-.88-.92-1.7-.63-2.44.29-.75,1-1.21,2.14-1.38,1.13-.17,2.35-.01,3.66.48,1.31.49,2.32,1.18,3.03,2.09.71.9.92,1.73.63,2.48-.29.75-1,1.21-2.14,1.38Z"/><path class="cls-5" d="m98.08,30.66c.31-.25.68-.37,1.08-.34s.74.2.99.52c.25.31.38.68.37,1.08-.09,1.45-.39,3.12-.89,5.02-1.3,5.93-3.14,9.53-5.5,10.78-.35.17-.69.29-1.05.37-.26.16-.52.25-.79.27-.22.02-.45.02-.68,0-2.26-.51-4.14-1.67-5.66-3.47-.9-1-1.64-2.26-2.21-3.79-.57-1.52-.99-3.03-1.26-4.51-.27-1.48-.42-3.26-.46-5.33-.03-2.07,0-3.85.08-5.35.09-1.49.27-3.34.54-5.52.27-2.19.49-3.84.66-4.96.17-1.12.41-2.62.74-4.49.05-.41.12-.91.2-1.51.1-.87.25-1.73.44-2.61.23-.97.68-1.71,1.35-2.22.67-.51,1.49-.68,2.46-.5,1.37.19,2.74.98,4.1,2.36,1.37,1.39,1.99,2.67,1.87,3.85-.09.95-.29,2.23-.59,3.84-.18.96-.32,1.7-.41,2.2-.56,3.21-.96,5.65-1.18,7.34-.23,1.69-.44,3.83-.63,6.41-.19,2.59-.16,4.98.09,7.19.25,2.21.72,4.45,1.43,6.73.52-.27,1.13-1.2,1.84-2.77.71-1.57,1.32-3.31,1.82-5.2.35-1.61.6-3.07.75-4.4,0-.41.17-.74.48-.99Z"/><path class="cls-5" d="m119.63,28.62c.36-.19.73-.23,1.11-.1.37.12.65.37.84.73.19.37.24.73.14,1.1-.42,1.3-1.2,2.51-2.34,3.63-1.14,1.12-2.35,1.76-3.64,1.92h-.13c-.36.05-.7.05-1.01.04-.77,5.84-2.16,9.32-4.18,10.45-.08.14-.2.26-.37.34-.17.08-.35.16-.52.22l-.2.02-.47.04s-.04-.06-.11-.06-.13-.01-.17-.05c-.59.01-1.2-.11-1.86-.37-1.45-.54-2.72-1.35-3.81-2.42-1.89-1.9-3.36-5.13-4.41-9.7-1.05-4.57-1.53-7.78-1.43-9.64.08-1.13.42-1.98,1.02-2.53.6-.55,1.31-.82,2.12-.8,1.4,0,2.87.64,4.43,1.89,1.56,1.25,2.35,2.49,2.37,3.7.02.22.04.67.06,1.35-.06,5.23.76,9.78,2.47,13.63.57-1.18,1.18-3.85,1.83-8.01-.2-.25-.38-.48-.54-.69-2.11-3.36-2.38-6.56-.81-9.59.34-.66.83-1.15,1.46-1.45.62-.31,1.28-.38,1.97-.22.6.17,1.11.56,1.53,1.18.42.62.6,1.42.56,2.42-.05.5-.1,1.14-.16,1.91-.16,2.22-.3,4.04-.45,5.45.14.03.3.04.48.02.67-.11,1.35-.52,2.05-1.24.7-.72,1.17-1.49,1.41-2.33.15-.37.4-.66.77-.85Zm-7.02-3.17l-.03-.34c-.57,1.13-.73,2.34-.48,3.63.15-1.27.32-2.37.51-3.29Z"/><path class="cls-5" d="m140.7,26.99c.31-.25.66-.37,1.05-.33.39.03.72.2.99.52.28.31.39.67.34,1.08-.14,1.95-.48,3.83-1.04,5.64-.07.28-.15.56-.26.84-1.2,3.58-3,6.34-5.39,8.27-1.68,1.33-3.46,2.08-5.34,2.25-.67.06-1.35.06-2.03-.02-2.92-.41-5.34-1.62-7.26-3.63-1.92-2.01-3.06-4.51-3.43-7.49-.29-2.72.2-5.36,1.47-7.91,1.27-2.55,3.35-4.36,6.23-5.44,2.83-1.11,5.22-.79,7.19.96.88.78,1.49,1.76,1.82,2.94.33,1.19.33,2.4,0,3.65-.47,1.76-1.51,3.23-3.11,4.41-1.13.96-2.44,1.62-3.94,1.98.06.67.14,1.32.25,1.94.61,2.69,1.63,4.24,3.06,4.65.87.19,1.97-.18,3.28-1.11,3.18-2.18,5.04-6.25,5.57-12.21.05-.41.24-.74.55-1Zm-9.77-1.47c-1.51,1.22-2.46,3.2-2.83,5.94.78-.3,1.45-.65,2-1.06.88-.76,1.49-1.69,1.84-2.8.42-1.3.43-2.18.03-2.64-.27.02-.61.21-1.03.57Z"/><path class="cls-5" d="m164.03,24.51c.69.16,1.07.6,1.14,1.32l.04.4c-.19.83-.41,2.01-.66,3.54-.24,1.53-.44,2.78-.6,3.74-.16.96-.41,2.09-.74,3.38-.33,1.29-.71,2.36-1.12,3.21-.42.85-.97,1.67-1.67,2.45-.69.78-1.49,1.4-2.4,1.84-.95.49-1.91.78-2.89.87-1.43.13-2.83-.17-4.21-.9-1.89-.95-3.21-3.08-3.97-6.39-.73-3.09-.77-5.97-.12-8.64-2.39.45-4.4.16-6.03-.86-.05-.04-.12-.08-.21-.12-1.16-.84-2.22-2.12-3.19-3.83-.6-1.12-1.03-2.24-1.29-3.36-.26-1.12-.38-2.09-.37-2.91.02-.81.12-1.62.32-2.43.2-.81.4-1.44.6-1.91.2-.47.45-.9.73-1.28.67-1.1,1.48-1.95,2.43-2.56s1.87-.88,2.73-.83c1.58.08,2.88.58,3.89,1.5,1.01.92,1.61,2.16,1.79,3.72.22,1.47.1,3.13-.39,5-.48,1.87-1.17,3.59-2.06,5.16,1.49-.41,2.52-1.29,3.07-2.65.37-.84.99-1.44,1.86-1.79,1.34-.57,3.12-.4,5.32.53.8.33,1.07.92.84,1.75-.83,3.19-1.3,6.7-1.4,10.54-.1,3.84.27,6.42,1.12,7.74.1.13.17.19.22.18.49-.09,1.05-.75,1.68-1.98.63-1.23,1.28-3,1.94-5.32.67-2.31,1.29-4.96,1.87-7.95.05-.41.25-.72.59-.93.34-.21.72-.29,1.13-.24Zm-23.25-9.49c-.41.49-.71,1.24-.91,2.25-.2,1.01-.18,2.13.07,3.37.29,1.64.98,2.82,2.08,3.53.57-1.18,1-2.5,1.29-3.97.29-1.47.3-2.73.02-3.79-.28-1.1-.94-1.67-1.98-1.71h-.07c-.13.02-.3.13-.51.32Z"/><path class="cls-5" d="m135.58,65.47c.57.64.61,1.58.11,2.84-.52,1.07-1.52,2.39-3,3.97-1.48,1.58-2.98,2.93-4.51,4.04-.41,3.91-1.56,7.38-3.45,10.43-2.45,3.74-5.61,5.91-9.47,6.51-.18.08-.37.13-.55.15-.63.07-1.23.07-1.8,0-4.45-.16-8.05-2.12-10.79-5.88-1.64-2.36-2.78-5.17-3.41-8.42-.63-3.26-.69-6.62-.17-10.1-.47-.84-.85-1.75-1.14-2.73-.86-2.69-.58-5.19.82-7.49,1.6-2.83,4.26-4.63,7.97-5.41,1.18-.25,2.33-.37,3.47-.37,3.21-.21,6.36.56,9.46,2.32,3.1,1.76,5.49,4.64,7.19,8.64.84,1.94,1.41,4.03,1.71,6.28.66-.32,1.46-.98,2.4-1.96.94-.99,1.62-1.85,2.05-2.59.05-.13.16-.27.34-.42.41-.3.89-.43,1.43-.39.54.04.99.23,1.34.57Zm-24.48,5.55c3.41,1.1,6.98,1.38,10.73.85-.23-2.13-.75-4.1-1.58-5.91-.94-2.31-2.32-4.12-4.14-5.45-1.82-1.33-3.87-1.99-6.15-2l-1.13.12c-1.86.39-3.29,1.17-4.31,2.36,1.12.39,2.4,1.17,3.86,2.34,3.02,2.21,3.95,4.71,2.79,7.49-.06.07-.08.14-.07.2Zm8.3,11.94c.92-1.43,1.6-3.08,2.04-4.96-4.05.62-7.87.43-11.46-.59-.11,3.12.37,5.6,1.46,7.44.68,1.07,1.44,1.62,2.27,1.66,2.29.07,4.19-1.11,5.7-3.55Z"/><path class="cls-5" d="m173.77,61.12c.58.07,1.04.3,1.4.71.36.41.54.89.54,1.46-.11,1.34-.3,2.88-.55,4.62-1.55,11.05-4.21,17.6-7.98,19.65-.48.24-1,.42-1.56.55-.18.08-.37.13-.55.15-.25.03-.51.02-.76-.01-.9-.09-1.81-.38-2.75-.85-2.18-.84-4-2.17-5.46-3.98-.8-.93-1.5-2.15-2.1-3.67-1.17,3.86-2.67,6.43-4.5,7.7-.48.3-.99.55-1.54.73-.3.16-.64.26-1.01.3-.31.03-.6,0-.86-.1l-.19.02c-.9-.09-1.78-.38-2.66-.86-2.12-.85-3.87-2.12-5.25-3.81-1.67-1.97-2.91-5.04-3.73-9.19-.82-4.15-1.26-7.83-1.31-11.02-.05-3.19.07-5.43.38-6.74.23-1.42.83-2.48,1.8-3.18.97-.7,2.13-.97,3.48-.8,1.93.3,3.87,1.39,5.81,3.28,1.94,1.88,2.84,3.66,2.7,5.32-.02.38-.11,1.03-.27,1.93-1.1,6.95-.76,13.13,1.02,18.51,1.44-2.5,2.5-7.99,3.19-16.48-.42-5.15-.44-8.63-.07-10.44.29-1.42.91-2.49,1.85-3.19.94-.7,2.08-.96,3.43-.79,1.93.3,3.87,1.39,5.81,3.28,1.94,1.88,2.84,3.66,2.7,5.32-.04.26-.08.74-.13,1.44-1.03,8.15-.54,15.16,1.48,21.02.75-.65,1.6-2.26,2.53-4.83.93-2.57,1.65-5.33,2.16-8.3.36-2,.63-3.93.81-5.78.02-.38.13-.73.32-1.03.19-.31.45-.54.78-.7.33-.16.69-.23,1.07-.21Z"/><path class="cls-5" d="m194.15,59.43c.44-.36.94-.53,1.51-.49s1.04.27,1.4.71c.36.44.54.94.54,1.51-.1,2.04-.48,4.39-1.15,7.05-1.71,8.35-4.21,13.43-7.5,15.23-.48.24-.97.42-1.46.54-.36.23-.72.36-1.1.4-.31.03-.63.04-.95,0-3.18-.67-5.84-2.26-8.01-4.75-1.29-1.38-2.34-3.14-3.17-5.27-.83-2.13-1.45-4.23-1.86-6.31-.41-2.08-.66-4.57-.75-7.47-.09-2.9-.08-5.4,0-7.5.09-2.1.31-4.69.65-7.76.34-3.07.61-5.4.83-6.97.21-1.57.53-3.68.94-6.32.06-.58.15-1.28.25-2.12.12-1.22.31-2.44.56-3.67.3-1.36.91-2.41,1.85-3.14.93-.73,2.08-.98,3.43-.74,1.92.24,3.86,1.32,5.8,3.23,1.94,1.92,2.85,3.7,2.71,5.36-.11,1.34-.36,3.14-.76,5.4-.24,1.36-.41,2.39-.53,3.1-.72,4.51-1.23,7.95-1.51,10.32-.29,2.37-.54,5.38-.75,9.01-.22,3.63-.13,6.99.27,10.09.39,3.09,1.1,6.23,2.14,9.41.72-.39,1.56-1.7,2.53-3.92.97-2.22,1.78-4.67,2.45-7.34.46-2.26.77-4.32.96-6.18,0-.57.22-1.03.66-1.4Z"/><path class="cls-1" d="m59.03,22.78h.07c.17-.11.38-.37.64-.77.26-.41.45-.91.57-1.51.68-2.94-.45-5.61-3.37-8-1.37-1.14-3.47-1.75-6.32-1.85-2.44-.09-4.82.41-7.13,1.5-2.31,1.09-4.12,2.4-5.42,3.91-1.83,2.15-2.52,4.47-2.07,6.95.2,1.15.58,2.2,1.17,3.14.58.94,1.19,1.72,1.84,2.33.64.62,1.57,1.25,2.78,1.91,1.21.65,2.21,1.15,3.01,1.48.8.33,1.99.81,3.58,1.43,1.21.48,2.17.84,2.87,1.09,4.64,1.92,8.08,4.1,10.34,6.55,1.96,2.21,2.96,5.02,3.01,8.44.04,3.42-.89,6.46-2.81,9.11-.88,1.25-1.75,2.29-2.62,3.11-.87.82-1.78,1.47-2.73,1.94-.95.47-1.72.8-2.31.99-.59.19-1.42.4-2.48.63-.62.1-1.08.21-1.39.33-.71.15-1.49.27-2.33.35-1.7.16-3.47.12-5.32-.12-1.85-.24-3.41-.66-4.68-1.26-1.13-.53-2.18-1.37-3.14-2.52-.96-1.15-1.58-2.48-1.85-3.99-.67-3.32.54-6.67,3.6-10.06.12-.15.27-.25.44-.31v-.07s.06,0,.06,0c.17-.06.37-.1.6-.12h.07c.14.03.25.06.35.1h.07c.19.07.33.14.43.22v.07s.07,0,.07,0c.1.08.17.19.23.32v.07s.07,0,.07,0c.06.18.1.35.12.53v.07c.04.4-.08.77-.36,1.11-2.17,2.41-3.01,4.78-2.52,7.13.17.89.53,1.69,1.07,2.4.54.72,1.09,1.21,1.66,1.47,1.27.6,2.69.98,4.26,1.13,1.57.15,3.03.05,4.4-.3,1.72-.43,3.26-1.18,4.63-2.25,1.37-1.07,2.32-2.31,2.87-3.71.78-1.83.57-3.79-.61-5.89-.92-1.63-2.46-3.2-4.62-4.71-1.35-.91-3.23-2-5.64-3.27-.66-.3-1.04-.49-1.13-.57-3.16-1.56-5.49-2.85-6.98-3.89-1.11-.75-2.13-1.56-3.06-2.42-.94-.86-1.74-1.77-2.41-2.72-.67-.95-1.25-1.94-1.72-2.95-.48-1.01-.81-2.03-.99-3.05-.18-1.02-.25-2.03-.21-3.02.23-3.36,1.83-6.52,4.81-9.5,2.39-2.43,5.23-4.25,8.52-5.48,3.29-1.23,6.64-1.7,10.04-1.43,3.04.22,5.59,1.04,7.66,2.47,5.1,3.54,6.82,8.3,5.16,14.26-.58,2.04-1.55,3.69-2.92,4.97-1.37,1.27-2.85,2.08-4.44,2.4-.22.07-.42.11-.6.12-.62.1-1.18.13-1.68.09-1.14-.12-1.97-.59-2.49-1.39-.75-1.24-.56-2.63.56-4.17.72-1.01,1.69-1.81,2.92-2.4,1.23-.59,2.51-.71,3.85-.39Z"/><path class="cls-1" d="m89.5,66.57h.05c.13-.08.28-.27.47-.57.19-.3.33-.67.42-1.11.5-2.18-.33-4.16-2.5-5.93-1.01-.84-2.57-1.3-4.68-1.37-1.81-.07-3.57.3-5.28,1.11-1.71.81-3.05,1.77-4.01,2.9-1.35,1.59-1.87,3.31-1.53,5.15.14.85.43,1.63.86,2.32.43.69.88,1.27,1.36,1.73.48.46,1.16.93,2.06,1.41.9.48,1.64.85,2.23,1.1.59.25,1.47.6,2.65,1.06.9.35,1.61.62,2.13.81,3.43,1.42,5.98,3.04,7.65,4.85,1.45,1.64,2.19,3.72,2.23,6.25.03,2.53-.66,4.78-2.08,6.75-.65.93-1.3,1.7-1.94,2.31-.64.61-1.32,1.09-2.02,1.44-.7.35-1.27.59-1.71.73-.44.14-1.05.3-1.83.47-.46.08-.8.16-1.03.24-.52.11-1.1.2-1.73.26-1.26.12-2.57.09-3.94-.09-1.37-.17-2.52-.49-3.46-.93-.84-.39-1.61-1.01-2.32-1.86-.71-.85-1.17-1.84-1.37-2.95-.49-2.46.4-4.94,2.67-7.45.09-.11.2-.18.33-.23v-.05s.04,0,.04,0c.13-.04.28-.08.44-.09h.05c.1.02.19.05.26.07h.05c.14.05.24.11.32.17v.05s.05,0,.05,0c.07.06.13.14.17.23v.05s.05,0,.05,0c.04.13.07.26.09.39v.05c.03.3-.06.57-.27.83-1.6,1.78-2.23,3.54-1.87,5.28.13.66.39,1.25.79,1.78.4.53.81.89,1.23,1.09.94.45,1.99.73,3.15.84,1.16.11,2.25.04,3.26-.22,1.27-.32,2.41-.87,3.42-1.67,1.01-.79,1.72-1.71,2.12-2.75.58-1.35.43-2.81-.45-4.36-.68-1.21-1.82-2.37-3.42-3.49-1-.68-2.39-1.48-4.18-2.42-.49-.22-.77-.36-.84-.42-2.34-1.15-4.06-2.11-5.17-2.88-.82-.56-1.57-1.16-2.27-1.79-.69-.64-1.29-1.31-1.79-2.01-.5-.7-.92-1.43-1.28-2.18-.35-.75-.6-1.5-.73-2.26-.14-.75-.19-1.5-.16-2.24.17-2.48,1.36-4.83,3.56-7.03,1.77-1.8,3.87-3.15,6.31-4.06,2.44-.91,4.91-1.26,7.43-1.06,2.25.16,4.14.77,5.67,1.83,3.78,2.62,5.05,6.14,3.82,10.56-.43,1.51-1.15,2.73-2.16,3.68-1.01.94-2.11,1.54-3.29,1.78-.16.05-.31.08-.44.09-.46.08-.88.1-1.25.06-.84-.09-1.46-.43-1.85-1.03-.55-.92-.41-1.95.42-3.09.53-.75,1.25-1.34,2.16-1.78.91-.43,1.86-.53,2.85-.29Z"/><path class="cls-6" d="m81.75,31.37c.31-.25.66-.37,1.05-.33.38.03.72.19.99.48.27.29.39.64.33,1.05-.04,1-.21,2.14-.5,3.43-.47,2.75-1.17,5.32-2.1,7.73-.93,2.41-2.15,3.99-3.65,4.76-.43.22-.87.35-1.32.39-.17.11-.35.17-.52.18-.22.02-.43,0-.62-.08-2.39-.5-4.3-1.66-5.73-3.46-1.17-1.42-2.02-3.61-2.56-6.56-.54-2.95-.82-5.57-.82-7.87,0-2.3.1-3.88.34-4.76.18-1.01.62-1.76,1.31-2.25.7-.49,1.53-.67,2.49-.53,1.37.23,2.74,1.03,4.11,2.39,1.36,1.36,1.99,2.63,1.87,3.82-.02.27-.09.71-.22,1.3-.84,5.12-.62,9.66.64,13.59.56-.32,1.22-1.35,1.98-3.09.76-1.74,1.37-3.62,1.81-5.64.29-1.29.47-2.48.55-3.57.05-.41.24-.74.55-1Zm-6.23-8.99c-1.13.17-2.36,0-3.66-.51-1.31-.51-2.32-1.21-3.03-2.09-.71-.88-.92-1.7-.63-2.44.29-.75,1-1.21,2.14-1.38,1.13-.17,2.35-.01,3.66.48,1.31.49,2.32,1.18,3.03,2.09.71.9.92,1.73.63,2.48-.29.75-1,1.21-2.14,1.38Z"/><path class="cls-6" d="m97.43,29.86c.31-.25.68-.37,1.08-.34s.74.2.99.52c.25.31.38.68.37,1.08-.09,1.45-.39,3.12-.89,5.02-1.3,5.93-3.14,9.53-5.5,10.78-.35.17-.69.29-1.05.37-.26.16-.52.25-.79.27-.22.02-.45.02-.68,0-2.26-.51-4.14-1.67-5.66-3.47-.9-1-1.64-2.26-2.21-3.79-.57-1.52-.99-3.03-1.26-4.51-.27-1.48-.42-3.26-.46-5.33-.03-2.07,0-3.85.08-5.35.09-1.49.27-3.34.54-5.52.27-2.19.49-3.84.66-4.96.17-1.12.41-2.62.74-4.49.05-.41.12-.91.2-1.51.1-.87.25-1.73.44-2.61.23-.97.68-1.71,1.35-2.22.67-.51,1.49-.68,2.46-.5,1.37.19,2.74.98,4.1,2.36,1.37,1.39,1.99,2.67,1.87,3.85-.09.95-.29,2.23-.59,3.84-.18.96-.32,1.7-.41,2.2-.56,3.21-.96,5.65-1.18,7.34-.23,1.69-.44,3.83-.63,6.41-.19,2.59-.16,4.98.09,7.19.25,2.21.72,4.45,1.43,6.73.52-.27,1.13-1.2,1.84-2.77.71-1.57,1.32-3.31,1.82-5.2.35-1.61.6-3.07.75-4.4,0-.41.17-.74.48-.99Z"/><path class="cls-6" d="m118.98,27.83c.36-.19.73-.23,1.11-.1.37.12.65.37.84.73.19.37.24.73.14,1.1-.42,1.3-1.2,2.51-2.34,3.63-1.14,1.12-2.35,1.76-3.64,1.92h-.13c-.36.05-.7.05-1.01.04-.77,5.84-2.16,9.32-4.18,10.45-.08.14-.2.26-.37.34-.17.08-.35.16-.52.22l-.2.02-.47.04s-.04-.06-.11-.06-.13-.01-.17-.05c-.59.01-1.2-.11-1.86-.37-1.45-.54-2.72-1.35-3.81-2.42-1.89-1.9-3.36-5.13-4.41-9.7-1.05-4.57-1.53-7.78-1.43-9.64.08-1.13.42-1.98,1.02-2.53.6-.55,1.31-.82,2.12-.8,1.4,0,2.87.64,4.43,1.89,1.56,1.25,2.35,2.49,2.37,3.7.02.22.04.67.06,1.35-.06,5.23.76,9.78,2.47,13.63.57-1.18,1.18-3.85,1.83-8.01-.2-.25-.38-.48-.54-.69-2.11-3.36-2.38-6.56-.81-9.59.34-.66.83-1.15,1.46-1.45.62-.31,1.28-.38,1.97-.22.6.17,1.11.56,1.53,1.18.42.62.6,1.42.56,2.42-.05.5-.1,1.14-.16,1.91-.16,2.22-.3,4.04-.45,5.45.14.03.3.04.48.02.67-.11,1.35-.52,2.05-1.24.7-.72,1.17-1.49,1.41-2.33.15-.37.4-.66.77-.85Zm-7.02-3.17l-.03-.34c-.57,1.13-.73,2.34-.48,3.63.15-1.27.32-2.37.51-3.29Z"/><path class="cls-6" d="m140.05,26.2c.31-.25.66-.37,1.05-.33.39.03.72.2.99.52.28.31.39.67.34,1.08-.14,1.95-.48,3.83-1.04,5.64-.07.28-.15.56-.26.84-1.2,3.58-3,6.34-5.39,8.27-1.68,1.33-3.46,2.08-5.34,2.25-.67.06-1.35.06-2.03-.02-2.92-.41-5.34-1.62-7.26-3.63-1.92-2.01-3.06-4.51-3.43-7.49-.29-2.72.2-5.36,1.47-7.91,1.27-2.55,3.35-4.36,6.23-5.44,2.83-1.11,5.22-.79,7.19.96.88.78,1.49,1.76,1.82,2.94.33,1.19.33,2.4,0,3.65-.47,1.76-1.51,3.23-3.11,4.41-1.13.96-2.44,1.62-3.94,1.98.06.67.14,1.32.25,1.94.61,2.69,1.63,4.24,3.06,4.65.87.19,1.97-.18,3.28-1.11,3.18-2.18,5.04-6.25,5.57-12.21.05-.41.24-.74.55-1Zm-9.77-1.47c-1.51,1.22-2.46,3.2-2.83,5.94.78-.3,1.45-.65,2-1.06.88-.76,1.49-1.69,1.84-2.8.42-1.3.43-2.18.03-2.64-.27.02-.61.21-1.03.57Z"/><path class="cls-6" d="m163.38,23.71c.69.16,1.07.6,1.14,1.32l.04.4c-.19.83-.41,2.01-.66,3.54-.24,1.53-.44,2.78-.6,3.74-.16.96-.41,2.09-.74,3.38-.33,1.29-.71,2.36-1.12,3.21-.42.85-.97,1.67-1.67,2.45-.69.78-1.49,1.4-2.4,1.84-.95.49-1.91.78-2.89.87-1.43.13-2.83-.17-4.21-.9-1.89-.95-3.21-3.08-3.97-6.39-.73-3.09-.77-5.97-.12-8.64-2.39.45-4.4.16-6.03-.86-.05-.04-.12-.08-.21-.12-1.16-.84-2.22-2.12-3.19-3.83-.6-1.12-1.03-2.24-1.29-3.36-.26-1.12-.38-2.09-.37-2.91.02-.81.12-1.62.32-2.43.2-.81.4-1.44.6-1.91.2-.47.45-.9.73-1.28.67-1.1,1.48-1.95,2.43-2.56s1.87-.88,2.73-.83c1.58.08,2.88.58,3.89,1.5,1.01.92,1.61,2.16,1.79,3.72.22,1.47.1,3.13-.39,5-.48,1.87-1.17,3.59-2.06,5.16,1.49-.41,2.52-1.29,3.07-2.65.37-.84.99-1.44,1.86-1.79,1.34-.57,3.12-.4,5.32.53.8.33,1.07.92.84,1.75-.83,3.19-1.3,6.7-1.4,10.54-.1,3.84.27,6.42,1.12,7.74.1.13.17.19.22.18.49-.09,1.05-.75,1.68-1.98.63-1.23,1.28-3,1.94-5.32.67-2.31,1.29-4.96,1.87-7.95.05-.41.25-.72.59-.93.34-.21.72-.29,1.13-.24Zm-23.25-9.49c-.41.49-.71,1.24-.91,2.25-.2,1.01-.18,2.13.07,3.37.29,1.64.98,2.82,2.08,3.53.57-1.18,1-2.5,1.29-3.97.29-1.47.3-2.73.02-3.79-.28-1.1-.94-1.67-1.98-1.71h-.07c-.13.02-.3.13-.51.32Z"/><path class="cls-6" d="m134.94,64.67c.57.64.61,1.58.11,2.84-.52,1.07-1.52,2.39-3,3.97-1.48,1.58-2.98,2.93-4.51,4.04-.41,3.91-1.56,7.38-3.45,10.43-2.45,3.74-5.61,5.91-9.47,6.51-.18.08-.37.13-.55.15-.63.07-1.23.07-1.8,0-4.45-.16-8.05-2.12-10.79-5.88-1.64-2.36-2.78-5.17-3.41-8.42s-.69-6.62-.17-10.1c-.47-.84-.85-1.75-1.14-2.73-.86-2.69-.58-5.19.82-7.49,1.6-2.83,4.26-4.63,7.97-5.41,1.18-.25,2.33-.37,3.47-.37,3.21-.21,6.36.56,9.46,2.32,3.1,1.76,5.49,4.64,7.19,8.64.84,1.94,1.41,4.03,1.71,6.28.66-.32,1.46-.98,2.4-1.96.94-.99,1.62-1.85,2.05-2.59.05-.13.16-.27.34-.42.41-.3.89-.43,1.43-.39.54.04.99.23,1.34.57Zm-24.48,5.55c3.41,1.1,6.98,1.38,10.73.85-.23-2.13-.75-4.1-1.58-5.91-.94-2.31-2.32-4.12-4.14-5.45-1.82-1.33-3.87-1.99-6.15-2l-1.13.12c-1.86.39-3.29,1.17-4.31,2.36,1.12.39,2.4,1.17,3.86,2.34,3.02,2.21,3.95,4.71,2.79,7.49-.06.07-.08.14-.07.2Zm8.3,11.94c.92-1.43,1.6-3.08,2.04-4.96-4.05.62-7.87.43-11.46-.59-.11,3.12.37,5.6,1.46,7.44.68,1.07,1.44,1.62,2.27,1.66,2.29.07,4.19-1.11,5.7-3.55Z"/><path class="cls-6" d="m173.13,60.33c.58.07,1.04.3,1.4.71.36.41.54.89.54,1.46-.11,1.34-.3,2.88-.55,4.62-1.55,11.05-4.21,17.6-7.98,19.65-.48.24-1,.42-1.56.55-.18.08-.37.13-.55.15-.25.03-.51.02-.76-.01-.9-.09-1.81-.38-2.75-.85-2.18-.84-4-2.17-5.46-3.98-.8-.93-1.5-2.15-2.1-3.67-1.17,3.86-2.67,6.43-4.5,7.7-.48.3-.99.55-1.54.73-.3.16-.64.26-1.01.3-.31.03-.6,0-.86-.1l-.19.02c-.9-.09-1.78-.38-2.66-.86-2.12-.85-3.87-2.12-5.25-3.81-1.67-1.97-2.91-5.04-3.73-9.19-.82-4.15-1.26-7.83-1.31-11.02-.05-3.19.07-5.43.38-6.74.23-1.42.83-2.48,1.8-3.18.97-.7,2.13-.97,3.48-.8,1.93.3,3.87,1.39,5.81,3.28,1.94,1.88,2.84,3.66,2.7,5.32-.02.38-.11,1.03-.27,1.93-1.1,6.95-.76,13.13,1.02,18.51,1.44-2.5,2.5-7.99,3.19-16.48-.42-5.15-.44-8.63-.07-10.44.29-1.42.91-2.49,1.85-3.19.94-.7,2.08-.96,3.43-.79,1.93.3,3.87,1.39,5.81,3.28,1.94,1.88,2.84,3.66,2.7,5.32-.04.26-.08.74-.13,1.44-1.03,8.15-.54,15.16,1.48,21.02.75-.65,1.6-2.26,2.53-4.83.93-2.57,1.65-5.33,2.16-8.3.36-2,.63-3.93.81-5.78.02-.38.13-.73.32-1.03.19-.31.45-.54.78-.7.33-.16.69-.23,1.07-.21Z"/><path class="cls-6" d="m193.51,58.64c.44-.36.94-.53,1.51-.49s1.04.27,1.4.71c.36.44.54.94.54,1.51-.1,2.04-.48,4.39-1.15,7.05-1.71,8.35-4.21,13.43-7.5,15.23-.48.24-.97.42-1.46.54-.36.23-.72.36-1.1.4-.31.03-.63.04-.95,0-3.18-.67-5.84-2.26-8.01-4.75-1.29-1.38-2.34-3.14-3.17-5.27-.83-2.13-1.45-4.23-1.86-6.31-.41-2.08-.66-4.57-.75-7.47-.09-2.9-.08-5.4,0-7.5.09-2.1.31-4.69.65-7.76.34-3.07.61-5.4.83-6.97.21-1.57.53-3.68.94-6.32.06-.58.15-1.28.25-2.12.12-1.22.31-2.44.56-3.67.3-1.36.91-2.41,1.85-3.14.93-.73,2.08-.98,3.43-.74,1.92.24,3.86,1.32,5.8,3.23,1.94,1.92,2.85,3.7,2.71,5.36-.11,1.34-.36,3.14-.76,5.4-.24,1.36-.41,2.39-.53,3.1-.72,4.51-1.23,7.95-1.51,10.32-.29,2.37-.54,5.38-.75,9.01-.22,3.63-.13,6.99.27,10.09.39,3.09,1.1,6.23,2.14,9.41.72-.39,1.56-1.7,2.53-3.92.97-2.22,1.78-4.67,2.45-7.34.46-2.26.77-4.32.96-6.18,0-.57.22-1.03.66-1.4Z"/><path class="cls-2" d="m58.19,21.24h.07c.17-.11.38-.37.64-.77.26-.41.45-.91.57-1.51.68-2.94-.45-5.61-3.37-8-1.37-1.14-3.47-1.75-6.32-1.85-2.44-.09-4.82.41-7.13,1.5-2.31,1.09-4.12,2.4-5.42,3.91-1.83,2.15-2.52,4.47-2.07,6.95.2,1.15.58,2.2,1.17,3.14.58.94,1.19,1.72,1.84,2.33.64.62,1.57,1.25,2.78,1.91,1.21.65,2.21,1.15,3.01,1.48.8.33,1.99.81,3.58,1.43,1.21.48,2.17.84,2.87,1.09,4.64,1.92,8.08,4.1,10.34,6.55,1.96,2.21,2.96,5.02,3.01,8.44.04,3.42-.89,6.46-2.81,9.11-.88,1.25-1.75,2.29-2.62,3.11-.87.82-1.78,1.47-2.73,1.94-.95.47-1.72.8-2.31.99-.59.19-1.42.4-2.48.63-.62.1-1.08.21-1.39.33-.71.15-1.49.27-2.33.35-1.7.16-3.47.12-5.32-.12-1.85-.24-3.41-.66-4.68-1.26-1.13-.53-2.18-1.37-3.14-2.52-.96-1.15-1.58-2.48-1.85-3.99-.67-3.32.54-6.67,3.6-10.06.12-.15.27-.25.44-.31v-.07s.06,0,.06,0c.17-.06.37-.1.6-.12h.07c.14.03.25.06.35.1h.07c.19.07.33.14.43.22v.07s.07,0,.07,0c.1.08.17.19.23.32v.07s.07,0,.07,0c.06.18.1.35.12.53v.07c.04.4-.08.77-.36,1.11-2.17,2.41-3.01,4.78-2.52,7.13.17.89.53,1.69,1.07,2.4.54.72,1.09,1.21,1.66,1.47,1.27.6,2.69.98,4.26,1.13,1.57.15,3.03.05,4.4-.3,1.72-.43,3.26-1.18,4.63-2.25,1.37-1.07,2.32-2.31,2.87-3.71.78-1.83.57-3.79-.61-5.89-.92-1.63-2.46-3.2-4.62-4.71-1.35-.91-3.23-2-5.64-3.27-.66-.3-1.04-.49-1.13-.57-3.16-1.56-5.49-2.85-6.98-3.89-1.11-.75-2.13-1.56-3.06-2.42-.94-.86-1.74-1.77-2.41-2.72-.67-.95-1.25-1.94-1.72-2.95-.48-1.01-.81-2.03-.99-3.05-.18-1.02-.25-2.03-.21-3.02.23-3.36,1.83-6.52,4.81-9.5,2.39-2.43,5.23-4.25,8.52-5.48,3.29-1.23,6.64-1.7,10.04-1.43,3.04.22,5.59,1.04,7.66,2.47,5.1,3.54,6.82,8.3,5.16,14.26-.58,2.04-1.55,3.69-2.92,4.97-1.37,1.27-2.85,2.08-4.44,2.4-.22.07-.42.11-.6.12-.62.1-1.18.13-1.68.09-1.14-.12-1.97-.59-2.49-1.39-.75-1.24-.56-2.63.56-4.17.72-1.01,1.69-1.81,2.92-2.4,1.23-.59,2.51-.71,3.85-.39Z"/><path class="cls-2" d="m88.67,65.03h.05c.13-.08.28-.27.47-.57.19-.3.33-.67.42-1.11.5-2.18-.33-4.16-2.5-5.93-1.01-.84-2.57-1.3-4.68-1.37-1.81-.07-3.57.3-5.28,1.11-1.71.81-3.05,1.77-4.01,2.9-1.35,1.59-1.87,3.31-1.53,5.15.14.85.43,1.63.86,2.32.43.69.88,1.27,1.36,1.73.48.46,1.16.93,2.06,1.41.9.48,1.64.85,2.23,1.1.59.25,1.47.6,2.65,1.06.9.35,1.61.62,2.13.81,3.43,1.42,5.98,3.04,7.65,4.85,1.45,1.64,2.19,3.72,2.23,6.25.03,2.53-.66,4.78-2.08,6.75-.65.93-1.3,1.7-1.94,2.31-.64.61-1.32,1.09-2.02,1.44-.7.35-1.27.59-1.71.73-.44.14-1.05.3-1.83.47-.46.08-.8.16-1.03.24-.52.11-1.1.2-1.73.26-1.26.12-2.57.09-3.94-.09-1.37-.17-2.52-.49-3.46-.93-.84-.39-1.61-1.01-2.32-1.86-.71-.85-1.17-1.84-1.37-2.95-.49-2.46.4-4.94,2.67-7.45.09-.11.2-.18.33-.23v-.05s.04,0,.04,0c.13-.04.28-.08.44-.09h.05c.1.02.19.05.26.07h.05c.14.05.24.11.32.17v.05s.05,0,.05,0c.07.06.13.14.17.23v.05s.05,0,.05,0c.04.13.07.26.09.39v.05c.03.3-.06.57-.27.83-1.6,1.78-2.23,3.54-1.87,5.28.13.66.39,1.25.79,1.78.4.53.81.89,1.23,1.09.94.45,1.99.73,3.15.84,1.16.11,2.25.04,3.26-.22,1.27-.32,2.41-.87,3.42-1.67,1.01-.79,1.72-1.71,2.12-2.75.58-1.35.43-2.81-.45-4.36-.68-1.21-1.82-2.37-3.42-3.49-1-.68-2.39-1.48-4.18-2.42-.49-.22-.77-.36-.84-.42-2.34-1.15-4.06-2.11-5.17-2.88-.82-.56-1.57-1.16-2.27-1.79-.69-.64-1.29-1.31-1.79-2.01-.5-.7-.92-1.43-1.28-2.18-.35-.75-.6-1.5-.73-2.26-.14-.75-.19-1.5-.16-2.24.17-2.48,1.36-4.83,3.56-7.03,1.77-1.8,3.87-3.15,6.31-4.06,2.44-.91,4.91-1.26,7.43-1.06,2.25.16,4.14.77,5.67,1.83,3.78,2.62,5.05,6.14,3.82,10.56-.43,1.51-1.15,2.73-2.16,3.68-1.01.94-2.11,1.54-3.29,1.78-.16.05-.31.08-.44.09-.46.08-.88.1-1.25.06-.84-.09-1.46-.43-1.85-1.03-.55-.92-.41-1.95.42-3.09.53-.75,1.25-1.34,2.16-1.78.91-.43,1.86-.53,2.85-.29Z"/><path class="cls-4" d="m80.91,29.83c.31-.25.66-.37,1.05-.33.38.03.72.19.99.48.27.29.39.64.33,1.05-.04,1-.21,2.14-.5,3.43-.47,2.75-1.17,5.32-2.1,7.73-.93,2.41-2.15,3.99-3.65,4.76-.43.22-.87.35-1.32.39-.17.11-.35.17-.52.18-.22.02-.43,0-.62-.08-2.39-.5-4.3-1.66-5.73-3.46-1.17-1.42-2.02-3.61-2.56-6.56-.54-2.95-.82-5.57-.82-7.87,0-2.3.1-3.88.34-4.76.18-1.01.62-1.76,1.31-2.25.7-.49,1.53-.67,2.49-.53,1.37.23,2.74,1.03,4.11,2.39,1.36,1.36,1.99,2.63,1.87,3.82-.02.27-.09.71-.22,1.3-.84,5.12-.62,9.66.64,13.59.56-.32,1.22-1.35,1.98-3.09.76-1.74,1.37-3.62,1.81-5.64.29-1.29.47-2.48.55-3.57.05-.41.24-.74.55-1Zm-6.23-8.99c-1.13.17-2.36,0-3.66-.51-1.31-.51-2.32-1.21-3.03-2.09-.71-.88-.92-1.7-.63-2.44.29-.75,1-1.21,2.14-1.38,1.13-.17,2.35-.01,3.66.48,1.31.49,2.32,1.18,3.03,2.09.71.9.92,1.73.63,2.48-.29.75-1,1.21-2.14,1.38Z"/><path class="cls-4" d="m96.59,28.32c.31-.25.68-.37,1.08-.34s.74.2.99.52c.25.31.38.68.37,1.08-.09,1.45-.39,3.12-.89,5.02-1.3,5.93-3.14,9.53-5.5,10.78-.35.17-.69.29-1.05.37-.26.16-.52.25-.79.27-.22.02-.45.02-.68,0-2.26-.51-4.14-1.67-5.66-3.47-.9-1-1.64-2.26-2.21-3.79-.57-1.52-.99-3.03-1.26-4.51-.27-1.48-.42-3.26-.46-5.33-.03-2.07,0-3.85.08-5.35.09-1.49.27-3.34.54-5.52.27-2.19.49-3.84.66-4.96.17-1.12.41-2.62.74-4.49.05-.41.12-.91.2-1.51.1-.87.25-1.73.44-2.61.23-.97.68-1.71,1.35-2.22.67-.51,1.49-.68,2.46-.5,1.37.19,2.74.98,4.1,2.36,1.37,1.39,1.99,2.67,1.87,3.85-.09.95-.29,2.23-.59,3.84-.18.96-.32,1.7-.41,2.2-.56,3.21-.96,5.65-1.18,7.34-.23,1.69-.44,3.83-.63,6.41-.19,2.59-.16,4.98.09,7.19.25,2.21.72,4.45,1.43,6.73.52-.27,1.13-1.2,1.84-2.77.71-1.57,1.32-3.31,1.82-5.2.35-1.61.6-3.07.75-4.4,0-.41.17-.74.48-.99Z"/><path class="cls-4" d="m118.14,26.29c.36-.19.73-.23,1.11-.1.37.12.65.37.84.73.19.37.24.73.14,1.1-.42,1.3-1.2,2.51-2.34,3.63-1.14,1.12-2.35,1.76-3.64,1.92h-.13c-.36.05-.7.05-1.01.04-.77,5.84-2.16,9.32-4.18,10.45-.08.14-.2.26-.37.34-.17.08-.35.16-.52.22l-.2.02-.47.04s-.04-.06-.11-.06-.13-.01-.17-.05c-.59.01-1.2-.11-1.86-.37-1.45-.54-2.72-1.35-3.81-2.42-1.89-1.9-3.36-5.13-4.41-9.7-1.05-4.57-1.53-7.78-1.43-9.64.08-1.13.42-1.98,1.02-2.53.6-.55,1.31-.82,2.12-.8,1.4,0,2.87.64,4.43,1.89,1.56,1.25,2.35,2.49,2.37,3.7.02.22.04.67.06,1.35-.06,5.23.76,9.78,2.47,13.63.57-1.18,1.18-3.85,1.83-8.01-.2-.25-.38-.48-.54-.69-2.11-3.36-2.38-6.56-.81-9.59.34-.66.83-1.15,1.46-1.45.62-.31,1.28-.38,1.97-.22.6.17,1.11.56,1.53,1.18.42.62.6,1.42.56,2.42-.05.5-.1,1.14-.16,1.91-.16,2.22-.3,4.04-.45,5.45.14.03.3.04.48.02.67-.11,1.35-.52,2.05-1.24.7-.72,1.17-1.49,1.41-2.33.15-.37.4-.66.77-.85Zm-7.02-3.17l-.03-.34c-.57,1.13-.73,2.34-.48,3.63.15-1.27.32-2.37.51-3.29Z"/><path class="cls-4" d="m139.22,24.65c.31-.25.66-.37,1.05-.33.39.03.72.2.99.52.28.31.39.67.34,1.08-.14,1.95-.48,3.83-1.04,5.64-.07.28-.15.56-.26.84-1.2,3.58-3,6.34-5.39,8.27-1.68,1.33-3.46,2.08-5.34,2.25-.67.06-1.35.06-2.03-.02-2.92-.41-5.34-1.62-7.26-3.63-1.92-2.01-3.06-4.51-3.43-7.49-.29-2.72.2-5.36,1.47-7.91s3.35-4.36,6.23-5.44c2.83-1.11,5.22-.79,7.19.96.88.78,1.49,1.76,1.82,2.94.33,1.19.33,2.4,0,3.65-.47,1.76-1.51,3.23-3.11,4.41-1.13.96-2.44,1.62-3.94,1.98.06.67.14,1.32.25,1.94.61,2.69,1.63,4.24,3.06,4.65.87.19,1.97-.18,3.28-1.11,3.18-2.18,5.04-6.25,5.57-12.21.05-.41.24-.74.55-1Zm-9.77-1.47c-1.51,1.22-2.46,3.2-2.83,5.94.78-.3,1.45-.65,2-1.06.88-.76,1.49-1.69,1.84-2.8.42-1.3.43-2.18.03-2.64-.27.02-.61.21-1.03.57Z"/><path class="cls-4" d="m162.54,22.17c.69.16,1.07.6,1.14,1.32l.04.4c-.19.83-.41,2.01-.66,3.54-.24,1.53-.44,2.78-.6,3.74-.16.96-.41,2.09-.74,3.38-.33,1.29-.71,2.36-1.12,3.21-.42.85-.97,1.67-1.67,2.45-.69.78-1.49,1.4-2.4,1.84-.95.49-1.91.78-2.89.87-1.43.13-2.83-.17-4.21-.9-1.89-.95-3.21-3.08-3.97-6.39-.73-3.09-.77-5.97-.12-8.64-2.39.45-4.4.16-6.03-.86-.05-.04-.12-.08-.21-.12-1.16-.84-2.22-2.12-3.19-3.83-.6-1.12-1.03-2.24-1.29-3.36-.26-1.12-.38-2.09-.37-2.91.02-.81.12-1.62.32-2.43.2-.81.4-1.44.6-1.91.2-.47.45-.9.73-1.28.67-1.1,1.48-1.95,2.43-2.56s1.87-.88,2.73-.83c1.58.08,2.88.58,3.89,1.5,1.01.92,1.61,2.16,1.79,3.72.22,1.47.1,3.13-.39,5-.48,1.87-1.17,3.59-2.06,5.16,1.49-.41,2.52-1.29,3.07-2.65.37-.84.99-1.44,1.86-1.79,1.34-.57,3.12-.4,5.32.53.8.33,1.07.92.84,1.75-.83,3.19-1.3,6.7-1.4,10.54-.1,3.84.27,6.42,1.12,7.74.1.13.17.19.22.18.49-.09,1.05-.75,1.68-1.98.63-1.23,1.28-3,1.94-5.32.67-2.31,1.29-4.96,1.87-7.95.05-.41.25-.72.59-.93.34-.21.72-.29,1.13-.24Zm-23.25-9.49c-.41.49-.71,1.24-.91,2.25-.2,1.01-.18,2.13.07,3.37.29,1.64.98,2.82,2.08,3.53.57-1.18,1-2.5,1.29-3.97.29-1.47.3-2.73.02-3.79-.28-1.1-.94-1.67-1.98-1.71h-.07c-.13.02-.3.13-.51.32Z"/><path class="cls-4" d="m134.1,63.13c.57.64.61,1.58.11,2.84-.52,1.07-1.52,2.39-3,3.97-1.48,1.58-2.98,2.93-4.51,4.04-.41,3.91-1.56,7.38-3.45,10.43-2.45,3.74-5.61,5.91-9.47,6.51-.18.08-.37.13-.55.15-.63.07-1.23.07-1.8,0-4.45-.16-8.05-2.12-10.79-5.88-1.64-2.36-2.78-5.17-3.41-8.42s-.69-6.62-.17-10.1c-.47-.84-.85-1.75-1.14-2.73-.86-2.69-.58-5.19.82-7.49,1.6-2.83,4.26-4.63,7.97-5.41,1.18-.25,2.33-.37,3.47-.37,3.21-.21,6.36.56,9.46,2.32,3.1,1.76,5.49,4.64,7.19,8.64.84,1.94,1.41,4.03,1.71,6.28.66-.32,1.46-.98,2.4-1.96.94-.99,1.62-1.85,2.05-2.59.05-.13.16-.27.34-.42.41-.3.89-.43,1.43-.39.54.04.99.23,1.34.57Zm-24.48,5.55c3.41,1.1,6.98,1.38,10.73.85-.23-2.13-.75-4.1-1.58-5.91-.94-2.31-2.32-4.12-4.14-5.45-1.82-1.33-3.87-1.99-6.15-2l-1.13.12c-1.86.39-3.29,1.17-4.31,2.36,1.12.39,2.4,1.17,3.86,2.34,3.02,2.21,3.95,4.71,2.79,7.49-.06.07-.08.14-.07.2Zm8.3,11.94c.92-1.43,1.6-3.08,2.04-4.96-4.05.62-7.87.43-11.46-.59-.11,3.12.37,5.6,1.46,7.44.68,1.07,1.44,1.62,2.27,1.66,2.29.07,4.19-1.11,5.7-3.55Z"/><path class="cls-4" d="m172.29,58.79c.58.07,1.04.3,1.4.71.36.41.54.89.54,1.46-.11,1.34-.3,2.88-.55,4.62-1.55,11.05-4.21,17.6-7.98,19.65-.48.24-1,.42-1.56.55-.18.08-.37.13-.55.15-.25.03-.51.02-.76-.01-.9-.09-1.81-.38-2.75-.85-2.18-.84-4-2.17-5.46-3.98-.8-.93-1.5-2.15-2.1-3.67-1.17,3.86-2.67,6.43-4.5,7.7-.48.3-.99.55-1.54.73-.3.16-.64.26-1.01.3-.31.03-.6,0-.86-.1l-.19.02c-.9-.09-1.78-.38-2.66-.86-2.12-.85-3.87-2.12-5.25-3.81-1.67-1.97-2.91-5.04-3.73-9.19-.82-4.15-1.26-7.83-1.31-11.02-.05-3.19.07-5.43.38-6.74.23-1.42.83-2.48,1.8-3.18.97-.7,2.13-.97,3.48-.8,1.93.3,3.87,1.39,5.81,3.28,1.94,1.88,2.84,3.66,2.7,5.32-.02.38-.11,1.03-.27,1.93-1.1,6.95-.76,13.13,1.02,18.51,1.44-2.5,2.5-7.99,3.19-16.48-.42-5.15-.44-8.63-.07-10.44.29-1.42.91-2.49,1.85-3.19.94-.7,2.08-.96,3.43-.79,1.93.3,3.87,1.39,5.81,3.28,1.94,1.88,2.84,3.66,2.7,5.32-.04.26-.08.74-.13,1.44-1.03,8.15-.54,15.16,1.48,21.02.75-.65,1.6-2.26,2.53-4.83.93-2.57,1.65-5.33,2.16-8.3.36-2,.63-3.93.81-5.78.02-.38.13-.73.32-1.03.19-.31.45-.54.78-.7.33-.16.69-.23,1.07-.21Z"/><path class="cls-4" d="m192.67,57.09c.44-.36.94-.53,1.51-.49s1.04.27,1.4.71c.36.44.54.94.54,1.51-.1,2.04-.48,4.39-1.15,7.05-1.71,8.35-4.21,13.43-7.5,15.23-.48.24-.97.42-1.46.54-.36.23-.72.36-1.1.4-.31.03-.63.04-.95,0-3.18-.67-5.84-2.26-8.01-4.75-1.29-1.38-2.34-3.14-3.17-5.27-.83-2.13-1.45-4.23-1.86-6.31-.41-2.08-.66-4.57-.75-7.47-.09-2.9-.08-5.4,0-7.5.09-2.1.31-4.69.65-7.76.34-3.07.61-5.4.83-6.97.21-1.57.53-3.68.94-6.32.06-.58.15-1.28.25-2.12.12-1.22.31-2.44.56-3.67.3-1.36.91-2.41,1.85-3.14.93-.73,2.08-.98,3.43-.74,1.92.24,3.86,1.32,5.8,3.23,1.94,1.92,2.85,3.7,2.71,5.36-.11,1.34-.36,3.14-.76,5.4-.24,1.36-.41,2.39-.53,3.1-.72,4.51-1.23,7.95-1.51,10.32-.29,2.37-.54,5.38-.75,9.01-.22,3.63-.13,6.99.27,10.09.39,3.09,1.1,6.23,2.14,9.41.72-.39,1.56-1.7,2.53-3.92.97-2.22,1.78-4.67,2.45-7.34.46-2.26.77-4.32.96-6.18,0-.57.22-1.03.66-1.4Z"/><path class="cls-3" d="m10.64,3.8c.58.55,1.05,1.27,1.42,2.17.36.9.61,1.83.72,2.79.12.96.18,1.85.18,2.67s-.04,1.57-.13,2.25c-.2,1.5-.64,2.87-1.31,4.11-.67,1.23-1.5,2.17-2.48,2.81-.68.44-1.39.69-2.14.77-.6.06-1.2.01-1.8-.16-.51-.13-.97-.34-1.37-.63-.41-.28-.72-.56-.93-.83-.21-.27-.39-.56-.54-.87-.15-.31-.25-.53-.29-.66s-.07-.23-.08-.32c-.04-.27.05-.47.28-.6.57-.28,1.02-.34,1.37-.19.31.14.53.51.68,1.1.08.37.18.63.29.8.11.16.32.27.61.33.94.19,1.76-.2,2.49-1.18.5-.66.9-1.54,1.22-2.64.32-1.09.52-2.22.6-3.36.08-1.15.04-2.29-.12-3.43-.16-1.14-.44-2.08-.84-2.84-.62-1.2-1.46-1.77-2.51-1.71-.48,0-.97.15-1.47.44-.5.29-.93.63-1.3,1.02-.36.4-.66.82-.89,1.26-.15.32-.24.6-.26.83.11.09.26.18.44.26.26.12.36.32.32.61-.05.29-.22.44-.51.46-.52.03-.9-.15-1.15-.53-.07-.11-.13-.23-.17-.35-.2-.34-.27-.71-.23-1.11.07-.6.39-1.23.99-1.88.59-.65,1.29-1.21,2.09-1.66.8-.46,1.56-.75,2.29-.89,1.84-.34,3.34.04,4.5,1.15Zm-4.21,4.61c-.03.28-.04.49-.04.64-.09,1.36-.14,2.39-.16,3.1-.02.71.02,1.59.12,2.66.1,1.06.29,2.05.58,2.94.07.21.04.4-.07.57-.09.14-.21.23-.36.28h-.11c-.06.02-.12.02-.17,0-.28-.06-.58-.21-.9-.47s-.57-.52-.76-.79c-.31-.45-.55-1.03-.73-1.76s-.29-1.58-.33-2.55c-.04-.97-.05-1.86-.03-2.68.02-.82.07-1.8.15-2.96,0-.13,0-.28.02-.46,0-.25.02-.5.05-.77.02-.34.13-.58.32-.74.19-.16.4-.23.62-.21.41.01.82.26,1.24.74.42.48.63.91.63,1.28-.01.29-.04.68-.07,1.16Z"/><path class="cls-3" d="m22.47,6.77c.1-.12.23-.18.39-.2.16-.01.3.03.41.13s.18.23.19.39c.01.16.04.42.07.79.12,1.01.11,2.09-.03,3.23-.15,1.14-.44,2.02-.9,2.64-.38.5-.81.85-1.27,1.04,0,.21,0,.37.01.48.02.66-.05,1.24-.2,1.76-.15.52-.33.92-.54,1.21-.21.29-.47.54-.76.76-.3.22-.55.36-.77.44-.22.08-.44.14-.69.19l-.31.06c-.47.05-.96.03-1.46-.08s-.98-.28-1.42-.53c-.45-.24-.84-.54-1.17-.88-.07-.09-.13-.2-.17-.31-.21-.33-.3-.69-.29-1.07,0-.25.07-.49.2-.72.13-.23.33-.48.6-.76.28-.28.71-.52,1.3-.74s1.31-.38,2.16-.5c-.14-2.13-.49-5.01-1.05-8.64-.07-.36.02-.66.28-.88.29-.27.64-.36,1.07-.26h.05c.25.07.48.15.7.24.22.09.48.22.77.37.29.16.52.35.68.58.17.23.26.47.28.74.36,2.91.58,5.36.66,7.35.21-.09.39-.26.54-.51.64-.94.83-2.64.57-5.08-.04-.4-.07-.68-.08-.84-.01-.16.03-.3.13-.41Zm-5.75,10.95c.78-.13,1.16-.95,1.16-2.47-1.04.16-1.82.39-2.34.69-.52.3-.8.61-.82.93l.02.13c.15.03.28.09.38.19.53.45,1.06.62,1.6.52Zm2.59-14.48c-.42.11-.9.09-1.44-.06-.54-.15-.96-.38-1.27-.69-.31-.31-.42-.62-.34-.92.08-.3.34-.51.78-.62.43-.11.91-.1,1.44.04.53.14.94.37,1.26.69.31.32.42.64.34.94-.08.3-.34.51-.76.61Z"/><path class="cls-6" d="m10.43,3.72c.58.55,1.05,1.27,1.42,2.17.36.9.61,1.83.72,2.79.12.96.18,1.85.18,2.67s-.04,1.57-.13,2.25c-.2,1.5-.64,2.87-1.31,4.11-.67,1.23-1.5,2.17-2.48,2.81-.68.44-1.39.69-2.14.77-.6.06-1.2.01-1.8-.16-.51-.13-.97-.34-1.37-.63-.41-.28-.72-.56-.93-.83-.21-.27-.39-.56-.54-.87-.15-.31-.25-.53-.29-.66s-.07-.23-.08-.32c-.04-.27.05-.47.28-.6.57-.28,1.02-.34,1.37-.19.31.14.53.51.68,1.1.08.37.18.63.29.8.11.16.32.27.61.33.94.19,1.76-.2,2.49-1.18.5-.66.9-1.54,1.22-2.64.32-1.09.52-2.22.6-3.36.08-1.15.04-2.29-.12-3.43-.16-1.14-.44-2.08-.84-2.84-.62-1.2-1.46-1.77-2.51-1.71-.48,0-.97.15-1.47.44-.5.29-.93.63-1.3,1.02-.36.4-.66.82-.89,1.26-.15.32-.24.6-.26.83.11.09.26.18.44.26.26.12.36.32.32.61-.05.29-.22.44-.51.46-.52.03-.9-.15-1.15-.53-.07-.11-.13-.23-.17-.35-.2-.34-.27-.71-.23-1.11.07-.6.39-1.23.99-1.88.59-.65,1.29-1.21,2.09-1.66.8-.46,1.56-.75,2.29-.89,1.84-.34,3.34.04,4.5,1.15Zm-4.21,4.61c-.03.28-.04.49-.04.64-.09,1.36-.14,2.39-.16,3.1-.02.71.02,1.59.12,2.66.1,1.06.29,2.05.58,2.94.07.21.04.4-.07.57-.09.14-.21.23-.36.28h-.11c-.06.02-.12.02-.17,0-.28-.06-.58-.21-.9-.47s-.57-.52-.76-.79c-.31-.45-.55-1.03-.73-1.76s-.29-1.58-.33-2.55c-.04-.97-.05-1.86-.03-2.68.02-.82.07-1.8.15-2.96,0-.13,0-.28.02-.46,0-.25.02-.5.05-.77.02-.34.13-.58.32-.74.19-.16.4-.23.62-.21.41.01.82.26,1.24.74.42.48.63.91.63,1.28-.01.29-.04.68-.07,1.16Z"/><path class="cls-6" d="m22.27,6.68c.1-.12.23-.18.39-.2.16-.01.3.03.41.13s.18.23.19.39c.01.16.04.42.07.79.12,1.01.11,2.09-.03,3.23-.15,1.14-.44,2.02-.9,2.64-.38.5-.81.85-1.27,1.04,0,.21,0,.37.01.48.02.66-.05,1.24-.2,1.76-.15.52-.33.92-.54,1.21-.21.29-.47.54-.76.76-.3.22-.55.36-.77.44-.22.08-.44.14-.69.19l-.31.06c-.47.05-.96.03-1.46-.08s-.98-.28-1.42-.53c-.45-.24-.84-.54-1.17-.88-.07-.09-.13-.2-.17-.31-.21-.33-.3-.69-.29-1.07,0-.25.07-.49.2-.72.13-.23.33-.48.6-.76.28-.28.71-.52,1.3-.74s1.31-.38,2.16-.5c-.14-2.13-.49-5.01-1.05-8.64-.07-.36.02-.66.28-.88.29-.27.64-.36,1.07-.26h.05c.25.07.48.15.7.24.22.09.48.22.77.37.29.16.52.35.68.58.17.23.26.47.28.74.36,2.91.58,5.36.66,7.35.21-.09.39-.26.54-.51.64-.94.83-2.64.57-5.08-.04-.4-.07-.68-.08-.84-.01-.16.03-.3.13-.41Zm-5.75,10.95c.78-.13,1.16-.95,1.16-2.47-1.04.16-1.82.39-2.34.69-.52.3-.8.61-.82.93l.02.13c.15.03.28.09.38.19.53.45,1.06.62,1.6.52Zm2.59-14.48c-.42.11-.9.09-1.44-.06-.54-.15-.96-.38-1.27-.69-.31-.31-.42-.62-.34-.92.08-.3.34-.51.78-.62.43-.11.91-.1,1.44.04.53.14.94.37,1.26.69.31.32.42.64.34.94-.08.3-.34.51-.76.61Z"/><path class="cls-4" d="m9.88,2.93c.58.55,1.05,1.27,1.42,2.17.36.9.61,1.83.72,2.79.12.96.18,1.85.18,2.67s-.04,1.57-.13,2.25c-.2,1.5-.64,2.87-1.31,4.11-.67,1.23-1.5,2.17-2.48,2.81-.68.44-1.39.69-2.14.77-.6.06-1.2.01-1.8-.16-.51-.13-.97-.34-1.37-.63-.41-.28-.72-.56-.93-.83-.21-.27-.39-.56-.54-.87-.15-.31-.25-.53-.29-.66s-.07-.23-.08-.32c-.04-.27.05-.47.28-.6.57-.28,1.02-.34,1.37-.19.31.14.53.51.68,1.1.08.37.18.63.29.8.11.16.32.27.61.33.94.19,1.76-.2,2.49-1.18.5-.66.9-1.54,1.22-2.64.32-1.09.52-2.22.6-3.36.08-1.15.04-2.29-.12-3.43-.16-1.14-.44-2.08-.84-2.84-.62-1.2-1.46-1.77-2.51-1.71-.48,0-.97.15-1.47.44-.5.29-.93.63-1.3,1.02-.36.4-.66.82-.89,1.26-.15.32-.24.6-.26.83.11.09.26.18.44.26.26.12.36.32.32.61-.05.29-.22.44-.51.46-.52.03-.9-.15-1.15-.53-.07-.11-.13-.23-.17-.35-.2-.34-.27-.71-.23-1.11.07-.6.39-1.23.99-1.88.59-.65,1.29-1.21,2.09-1.66.8-.46,1.56-.75,2.29-.89,1.84-.34,3.34.04,4.5,1.15Zm-4.21,4.61c-.03.28-.04.49-.04.64-.09,1.36-.14,2.39-.16,3.1-.02.71.02,1.59.12,2.66.1,1.06.29,2.05.58,2.94.07.21.04.4-.07.57-.09.14-.21.23-.36.28h-.11c-.06.02-.12.02-.17,0-.28-.06-.58-.21-.9-.47s-.57-.52-.76-.79c-.31-.45-.55-1.03-.73-1.76s-.29-1.58-.33-2.55c-.04-.97-.05-1.86-.03-2.68.02-.82.07-1.8.15-2.96,0-.13,0-.28.02-.46,0-.25.02-.5.05-.77.02-.34.13-.58.32-.74.19-.16.4-.23.62-.21.41.01.82.26,1.24.74.42.48.63.91.63,1.28-.01.29-.04.68-.07,1.16Z"/><path class="cls-4" d="m21.71,5.9c.1-.12.23-.18.39-.2.16-.01.3.03.41.13s.18.23.19.39c.01.16.04.42.07.79.12,1.01.11,2.09-.03,3.23-.15,1.14-.44,2.02-.9,2.64-.38.5-.81.85-1.27,1.04,0,.21,0,.37.01.48.02.66-.05,1.24-.2,1.76-.15.52-.33.92-.54,1.21-.21.29-.47.54-.76.76-.3.22-.55.36-.77.44-.22.08-.44.14-.69.19l-.31.06c-.47.05-.96.03-1.46-.08s-.98-.28-1.42-.53c-.45-.24-.84-.54-1.17-.88-.07-.09-.13-.2-.17-.31-.21-.33-.3-.69-.29-1.07,0-.25.07-.49.2-.72.13-.23.33-.48.6-.76.28-.28.71-.52,1.3-.74s1.31-.38,2.16-.5c-.14-2.13-.49-5.01-1.05-8.64-.07-.36.02-.66.28-.88.29-.27.64-.36,1.07-.26h.05c.25.07.48.15.7.24.22.09.48.22.77.37.29.16.52.35.68.58.17.23.26.47.28.74.36,2.91.58,5.36.66,7.35.21-.09.39-.26.54-.51.64-.94.83-2.64.57-5.08-.04-.4-.07-.68-.08-.84-.01-.16.03-.3.13-.41Zm-5.75,10.95c.78-.13,1.16-.95,1.16-2.47-1.04.16-1.82.39-2.34.69-.52.3-.8.61-.82.93l.02.13c.15.03.28.09.38.19.53.45,1.06.62,1.6.52Zm2.59-14.48c-.42.11-.9.09-1.44-.06-.54-.15-.96-.38-1.27-.69-.31-.31-.42-.62-.34-.92.08-.3.34-.51.78-.62.43-.11.91-.1,1.44.04.53.14.94.37,1.26.69.31.32.42.64.34.94-.08.3-.34.51-.76.61Z"/></svg>